<svg width="680" height="553" viewBox="0 0 680 553" fill="none" xmlns="http://www.w3.org/2000/svg">
<path d="M178.864 35.432C175.264 35.432 172.456 34.436 170.44 32.444C168.448 30.452 167.452 27.608 167.452 23.912V9.8H173.284V23.696C173.284 28.208 175.156 30.464 178.9 30.464C180.724 30.464 182.116 29.924 183.076 28.844C184.036 27.74 184.516 26.024 184.516 23.696V9.8H190.276V23.912C190.276 27.608 189.268 30.452 187.252 32.444C185.26 34.436 182.464 35.432 178.864 35.432ZM207.415 15.344C209.815 15.344 211.747 16.064 213.211 17.504C214.699 18.944 215.443 21.08 215.443 23.912V35H209.827V24.776C209.827 23.24 209.491 22.1 208.819 21.356C208.147 20.588 207.175 20.204 205.903 20.204C204.487 20.204 203.359 20.648 202.519 21.536C201.679 22.4 201.259 23.696 201.259 25.424V35H195.643V15.632H201.007V17.9C201.751 17.084 202.675 16.46 203.779 16.028C204.883 15.572 206.095 15.344 207.415 15.344ZM220.533 8.288H226.149V35H220.533V8.288ZM240.578 35.288C238.538 35.288 236.702 34.868 235.07 34.028C233.462 33.164 232.202 31.976 231.29 30.464C230.378 28.952 229.922 27.236 229.922 25.316C229.922 23.396 230.378 21.68 231.29 20.168C232.202 18.656 233.462 17.48 235.07 16.64C236.702 15.776 238.538 15.344 240.578 15.344C242.618 15.344 244.442 15.776 246.05 16.64C247.658 17.48 248.918 18.656 249.83 20.168C250.742 21.68 251.198 23.396 251.198 25.316C251.198 27.236 250.742 28.952 249.83 30.464C248.918 31.976 247.658 33.164 246.05 34.028C244.442 34.868 242.618 35.288 240.578 35.288ZM240.578 30.68C242.018 30.68 243.194 30.2 244.106 29.24C245.042 28.256 245.51 26.948 245.51 25.316C245.51 23.684 245.042 22.388 244.106 21.428C243.194 20.444 242.018 19.952 240.578 19.952C239.138 19.952 237.95 20.444 237.014 21.428C236.078 22.388 235.61 23.684 235.61 25.316C235.61 26.948 236.078 28.256 237.014 29.24C237.95 30.2 239.138 30.68 240.578 30.68ZM264.311 35.288C262.247 35.288 260.387 34.868 258.731 34.028C257.099 33.164 255.815 31.976 254.879 30.464C253.967 28.952 253.511 27.236 253.511 25.316C253.511 23.396 253.967 21.68 254.879 20.168C255.815 18.656 257.099 17.48 258.731 16.64C260.387 15.776 262.247 15.344 264.311 15.344C266.351 15.344 268.127 15.776 269.639 16.64C271.175 17.48 272.291 18.692 272.987 20.276L268.631 22.616C267.623 20.84 266.171 19.952 264.275 19.952C262.811 19.952 261.599 20.432 260.639 21.392C259.679 22.352 259.199 23.66 259.199 25.316C259.199 26.972 259.679 28.28 260.639 29.24C261.599 30.2 262.811 30.68 264.275 30.68C266.195 30.68 267.647 29.792 268.631 28.016L272.987 30.392C272.291 31.928 271.175 33.128 269.639 33.992C268.127 34.856 266.351 35.288 264.311 35.288ZM284.396 27.404L281.696 30.068V35H276.08V8.288H281.696V23.408L289.904 15.632H296.6L288.536 23.84L297.32 35H290.516L284.396 27.404ZM329.265 15.632L320.517 36.188C319.629 38.42 318.525 39.992 317.205 40.904C315.909 41.816 314.337 42.272 312.489 42.272C311.481 42.272 310.485 42.116 309.501 41.804C308.517 41.492 307.713 41.06 307.089 40.508L309.141 36.512C309.573 36.896 310.065 37.196 310.617 37.412C311.193 37.628 311.757 37.736 312.309 37.736C313.077 37.736 313.701 37.544 314.181 37.16C314.661 36.8 315.093 36.188 315.477 35.324L315.549 35.144L307.161 15.632H312.957L318.393 28.772L323.865 15.632H329.265ZM340.246 35.288C338.206 35.288 336.37 34.868 334.738 34.028C333.13 33.164 331.87 31.976 330.958 30.464C330.046 28.952 329.59 27.236 329.59 25.316C329.59 23.396 330.046 21.68 330.958 20.168C331.87 18.656 333.13 17.48 334.738 16.64C336.37 15.776 338.206 15.344 340.246 15.344C342.286 15.344 344.11 15.776 345.718 16.64C347.326 17.48 348.586 18.656 349.498 20.168C350.41 21.68 350.866 23.396 350.866 25.316C350.866 27.236 350.41 28.952 349.498 30.464C348.586 31.976 347.326 33.164 345.718 34.028C344.11 34.868 342.286 35.288 340.246 35.288ZM340.246 30.68C341.686 30.68 342.862 30.2 343.774 29.24C344.71 28.256 345.178 26.948 345.178 25.316C345.178 23.684 344.71 22.388 343.774 21.428C342.862 20.444 341.686 19.952 340.246 19.952C338.806 19.952 337.618 20.444 336.682 21.428C335.746 22.388 335.278 23.684 335.278 25.316C335.278 26.948 335.746 28.256 336.682 29.24C337.618 30.2 338.806 30.68 340.246 30.68ZM374.131 15.632V35H368.803V32.696C368.059 33.536 367.171 34.184 366.139 34.64C365.107 35.072 363.991 35.288 362.791 35.288C360.247 35.288 358.231 34.556 356.743 33.092C355.255 31.628 354.511 29.456 354.511 26.576V15.632H360.127V25.748C360.127 28.868 361.435 30.428 364.051 30.428C365.395 30.428 366.475 29.996 367.291 29.132C368.107 28.244 368.515 26.936 368.515 25.208V15.632H374.131ZM384.698 18.188C385.37 17.252 386.27 16.544 387.398 16.064C388.55 15.584 389.87 15.344 391.358 15.344V20.528C390.734 20.48 390.314 20.456 390.098 20.456C388.49 20.456 387.23 20.912 386.318 21.824C385.406 22.712 384.95 24.056 384.95 25.856V35H379.334V15.632H384.698V18.188ZM411.549 35.288C409.941 35.288 408.369 35.096 406.833 34.712C405.297 34.304 404.073 33.8 403.161 33.2L405.033 29.168C405.897 29.72 406.941 30.176 408.165 30.536C409.389 30.872 410.589 31.04 411.765 31.04C414.141 31.04 415.329 30.452 415.329 29.276C415.329 28.724 415.005 28.328 414.357 28.088C413.709 27.848 412.713 27.644 411.369 27.476C409.785 27.236 408.477 26.96 407.445 26.648C406.413 26.336 405.513 25.784 404.745 24.992C404.001 24.2 403.629 23.072 403.629 21.608C403.629 20.384 403.977 19.304 404.673 18.368C405.393 17.408 406.425 16.664 407.769 16.136C409.137 15.608 410.745 15.344 412.593 15.344C413.961 15.344 415.317 15.5 416.661 15.812C418.029 16.1 419.157 16.508 420.045 17.036L418.173 21.032C416.469 20.072 414.609 19.592 412.593 19.592C411.393 19.592 410.493 19.76 409.893 20.096C409.293 20.432 408.993 20.864 408.993 21.392C408.993 21.992 409.317 22.412 409.965 22.652C410.613 22.892 411.645 23.12 413.061 23.336C414.645 23.6 415.941 23.888 416.949 24.2C417.957 24.488 418.833 25.028 419.577 25.82C420.321 26.612 420.693 27.716 420.693 29.132C420.693 30.332 420.333 31.4 419.613 32.336C418.893 33.272 417.837 34.004 416.445 34.532C415.077 35.036 413.445 35.288 411.549 35.288ZM436.65 34.064C436.098 34.472 435.414 34.784 434.598 35C433.806 35.192 432.966 35.288 432.078 35.288C429.774 35.288 427.986 34.7 426.714 33.524C425.466 32.348 424.842 30.62 424.842 28.34V20.384H421.854V16.064H424.842V11.348H430.458V16.064H435.282V20.384H430.458V28.268C430.458 29.084 430.662 29.72 431.07 30.176C431.502 30.608 432.102 30.824 432.87 30.824C433.758 30.824 434.514 30.584 435.138 30.104L436.65 34.064ZM459.315 15.632V35H453.987V32.696C453.243 33.536 452.355 34.184 451.323 34.64C450.291 35.072 449.175 35.288 447.975 35.288C445.431 35.288 443.415 34.556 441.927 33.092C440.439 31.628 439.695 29.456 439.695 26.576V15.632H445.311V25.748C445.311 28.868 446.619 30.428 449.235 30.428C450.579 30.428 451.659 29.996 452.475 29.132C453.291 28.244 453.699 26.936 453.699 25.208V15.632H459.315ZM473.878 35.288C471.814 35.288 469.954 34.868 468.298 34.028C466.666 33.164 465.382 31.976 464.446 30.464C463.534 28.952 463.078 27.236 463.078 25.316C463.078 23.396 463.534 21.68 464.446 20.168C465.382 18.656 466.666 17.48 468.298 16.64C469.954 15.776 471.814 15.344 473.878 15.344C475.918 15.344 477.694 15.776 479.206 16.64C480.742 17.48 481.858 18.692 482.554 20.276L478.198 22.616C477.19 20.84 475.738 19.952 473.842 19.952C472.378 19.952 471.166 20.432 470.206 21.392C469.246 22.352 468.766 23.66 468.766 25.316C468.766 26.972 469.246 28.28 470.206 29.24C471.166 30.2 472.378 30.68 473.842 30.68C475.762 30.68 477.214 29.792 478.198 28.016L482.554 30.392C481.858 31.928 480.742 33.128 479.206 33.992C477.694 34.856 475.918 35.288 473.878 35.288ZM493.963 27.404L491.263 30.068V35H485.647V8.288H491.263V23.408L499.471 15.632H506.167L498.103 23.84L506.887 35H500.083L493.963 27.404ZM524.972 18.188C525.644 17.252 526.544 16.544 527.672 16.064C528.824 15.584 530.144 15.344 531.632 15.344V20.528C531.008 20.48 530.588 20.456 530.372 20.456C528.764 20.456 527.504 20.912 526.592 21.824C525.68 22.712 525.224 24.056 525.224 25.856V35H519.608V15.632H524.972V18.188ZM553.767 25.388C553.767 25.46 553.731 25.964 553.659 26.9H539.007C539.271 28.1 539.895 29.048 540.879 29.744C541.863 30.44 543.087 30.788 544.551 30.788C545.559 30.788 546.447 30.644 547.215 30.356C548.007 30.044 548.739 29.564 549.411 28.916L552.399 32.156C550.575 34.244 547.911 35.288 544.407 35.288C542.223 35.288 540.291 34.868 538.611 34.028C536.931 33.164 535.635 31.976 534.723 30.464C533.811 28.952 533.355 27.236 533.355 25.316C533.355 23.42 533.799 21.716 534.687 20.204C535.599 18.668 536.835 17.48 538.395 16.64C539.979 15.776 541.743 15.344 543.687 15.344C545.583 15.344 547.299 15.752 548.835 16.568C550.371 17.384 551.571 18.56 552.435 20.096C553.323 21.608 553.767 23.372 553.767 25.388ZM543.723 19.592C542.451 19.592 541.383 19.952 540.519 20.672C539.655 21.392 539.127 22.376 538.935 23.624H548.475C548.283 22.4 547.755 21.428 546.891 20.708C546.027 19.964 544.971 19.592 543.723 19.592ZM576.379 15.632L568.207 35H562.411L554.274 15.632H560.071L565.435 28.808L570.979 15.632H576.379ZM597.115 25.388C597.115 25.46 597.079 25.964 597.007 26.9H582.355C582.619 28.1 583.243 29.048 584.227 29.744C585.211 30.44 586.435 30.788 587.899 30.788C588.907 30.788 589.795 30.644 590.563 30.356C591.355 30.044 592.087 29.564 592.759 28.916L595.747 32.156C593.923 34.244 591.259 35.288 587.755 35.288C585.571 35.288 583.639 34.868 581.959 34.028C580.279 33.164 578.983 31.976 578.071 30.464C577.159 28.952 576.703 27.236 576.703 25.316C576.703 23.42 577.147 21.716 578.035 20.204C578.947 18.668 580.183 17.48 581.743 16.64C583.327 15.776 585.091 15.344 587.035 15.344C588.931 15.344 590.647 15.752 592.183 16.568C593.719 17.384 594.919 18.56 595.783 20.096C596.671 21.608 597.115 23.372 597.115 25.388ZM587.071 19.592C585.799 19.592 584.731 19.952 583.867 20.672C583.003 21.392 582.475 22.376 582.283 23.624H591.823C591.631 22.4 591.103 21.428 590.239 20.708C589.375 19.964 588.319 19.592 587.071 19.592ZM612.626 15.344C615.026 15.344 616.958 16.064 618.422 17.504C619.91 18.944 620.654 21.08 620.654 23.912V35H615.038V24.776C615.038 23.24 614.702 22.1 614.03 21.356C613.358 20.588 612.386 20.204 611.114 20.204C609.698 20.204 608.57 20.648 607.73 21.536C606.89 22.4 606.47 23.696 606.47 25.424V35H600.854V15.632H606.218V17.9C606.962 17.084 607.886 16.46 608.99 16.028C610.094 15.572 611.306 15.344 612.626 15.344ZM645.256 15.632V35H639.928V32.696C639.184 33.536 638.296 34.184 637.264 34.64C636.232 35.072 635.116 35.288 633.916 35.288C631.372 35.288 629.356 34.556 627.868 33.092C626.38 31.628 625.636 29.456 625.636 26.576V15.632H631.252V25.748C631.252 28.868 632.56 30.428 635.176 30.428C636.52 30.428 637.6 29.996 638.416 29.132C639.232 28.244 639.64 26.936 639.64 25.208V15.632H645.256ZM669.431 25.388C669.431 25.46 669.395 25.964 669.323 26.9H654.671C654.935 28.1 655.559 29.048 656.543 29.744C657.527 30.44 658.751 30.788 660.215 30.788C661.223 30.788 662.111 30.644 662.879 30.356C663.671 30.044 664.403 29.564 665.075 28.916L668.063 32.156C666.239 34.244 663.575 35.288 660.071 35.288C657.887 35.288 655.955 34.868 654.275 34.028C652.595 33.164 651.299 31.976 650.387 30.464C649.475 28.952 649.019 27.236 649.019 25.316C649.019 23.42 649.463 21.716 650.351 20.204C651.263 18.668 652.499 17.48 654.059 16.64C655.643 15.776 657.407 15.344 659.351 15.344C661.247 15.344 662.963 15.752 664.499 16.568C666.035 17.384 667.235 18.56 668.099 20.096C668.987 21.608 669.431 23.372 669.431 25.388ZM659.387 19.592C658.115 19.592 657.047 19.952 656.183 20.672C655.319 21.392 654.791 22.376 654.599 23.624H664.139C663.947 22.4 663.419 21.428 662.555 20.708C661.691 19.964 660.635 19.592 659.387 19.592ZM675.294 35.288C674.31 35.288 673.482 34.952 672.81 34.28C672.138 33.608 671.802 32.768 671.802 31.76C671.802 30.728 672.138 29.9 672.81 29.276C673.482 28.628 674.31 28.304 675.294 28.304C676.278 28.304 677.106 28.628 677.778 29.276C678.45 29.9 678.786 30.728 678.786 31.76C678.786 32.768 678.45 33.608 677.778 34.28C677.106 34.952 676.278 35.288 675.294 35.288Z" fill="#333333"/>
<path d="M57.1061 69.4L52.8941 82H51.0041L47.5661 71.938L44.1281 82H42.2021L37.9901 69.4H39.8441L43.2461 79.642L46.7921 69.4H48.4481L51.9221 79.696L55.3961 69.4H57.1061ZM66.9573 77.284C66.9573 77.416 66.9453 77.59 66.9213 77.806H59.1813C59.2893 78.646 59.6553 79.324 60.2793 79.84C60.9153 80.344 61.7013 80.596 62.6373 80.596C63.7773 80.596 64.6953 80.212 65.3913 79.444L66.3453 80.56C65.9133 81.064 65.3733 81.448 64.7253 81.712C64.0893 81.976 63.3753 82.108 62.5833 82.108C61.5753 82.108 60.6813 81.904 59.9013 81.496C59.1213 81.076 58.5153 80.494 58.0833 79.75C57.6633 79.006 57.4533 78.166 57.4533 77.23C57.4533 76.306 57.6573 75.472 58.0653 74.728C58.4853 73.984 59.0553 73.408 59.7753 73C60.5073 72.58 61.3293 72.37 62.2413 72.37C63.1533 72.37 63.9633 72.58 64.6713 73C65.3913 73.408 65.9493 73.984 66.3453 74.728C66.7533 75.472 66.9573 76.324 66.9573 77.284ZM62.2413 73.828C61.4133 73.828 60.7173 74.08 60.1533 74.584C59.6013 75.088 59.2773 75.748 59.1813 76.564H65.3013C65.2053 75.76 64.8753 75.106 64.3113 74.602C63.7593 74.086 63.0693 73.828 62.2413 73.828ZM79.2847 72.37C80.4967 72.37 81.4567 72.724 82.1647 73.432C82.8847 74.128 83.2447 75.154 83.2447 76.51V82H81.5167V76.708C81.5167 75.784 81.2947 75.088 80.8507 74.62C80.4067 74.152 79.7707 73.918 78.9427 73.918C78.0067 73.918 77.2687 74.194 76.7287 74.746C76.1887 75.286 75.9187 76.066 75.9187 77.086V82H74.1907V68.644H75.9187V73.81C76.2787 73.354 76.7467 73 77.3227 72.748C77.9107 72.496 78.5647 72.37 79.2847 72.37ZM95.1174 77.284C95.1174 77.416 95.1054 77.59 95.0814 77.806H87.3414C87.4494 78.646 87.8154 79.324 88.4394 79.84C89.0754 80.344 89.8614 80.596 90.7974 80.596C91.9374 80.596 92.8554 80.212 93.5514 79.444L94.5054 80.56C94.0734 81.064 93.5334 81.448 92.8854 81.712C92.2494 81.976 91.5354 82.108 90.7434 82.108C89.7354 82.108 88.8414 81.904 88.0614 81.496C87.2814 81.076 86.6754 80.494 86.2434 79.75C85.8234 79.006 85.6134 78.166 85.6134 77.23C85.6134 76.306 85.8174 75.472 86.2254 74.728C86.6454 73.984 87.2154 73.408 87.9354 73C88.6674 72.58 89.4894 72.37 90.4014 72.37C91.3134 72.37 92.1234 72.58 92.8314 73C93.5514 73.408 94.1094 73.984 94.5054 74.728C94.9134 75.472 95.1174 76.324 95.1174 77.284ZM90.4014 73.828C89.5734 73.828 88.8774 74.08 88.3134 74.584C87.7614 75.088 87.4374 75.748 87.3414 76.564H93.4614C93.3654 75.76 93.0354 75.106 92.4714 74.602C91.9194 74.086 91.2294 73.828 90.4014 73.828ZM97.5169 68.644H99.2449V82H97.5169V68.644ZM107.602 72.37C108.526 72.37 109.354 72.574 110.086 72.982C110.818 73.39 111.388 73.96 111.796 74.692C112.216 75.424 112.426 76.27 112.426 77.23C112.426 78.19 112.216 79.042 111.796 79.786C111.388 80.518 110.818 81.088 110.086 81.496C109.354 81.904 108.526 82.108 107.602 82.108C106.918 82.108 106.288 81.976 105.712 81.712C105.148 81.448 104.668 81.064 104.272 80.56V85.492H102.544V72.46H104.2V73.972C104.584 73.444 105.07 73.048 105.658 72.784C106.246 72.508 106.894 72.37 107.602 72.37ZM107.458 80.596C108.07 80.596 108.616 80.458 109.096 80.182C109.588 79.894 109.972 79.498 110.248 78.994C110.536 78.478 110.68 77.89 110.68 77.23C110.68 76.57 110.536 75.988 110.248 75.484C109.972 74.968 109.588 74.572 109.096 74.296C108.616 74.02 108.07 73.882 107.458 73.882C106.858 73.882 106.312 74.026 105.82 74.314C105.34 74.59 104.956 74.98 104.668 75.484C104.392 75.988 104.254 76.57 104.254 77.23C104.254 77.89 104.392 78.478 104.668 78.994C104.944 79.498 105.328 79.894 105.82 80.182C106.312 80.458 106.858 80.596 107.458 80.596ZM128.09 72.46L123.464 82.954C123.056 83.926 122.576 84.61 122.024 85.006C121.484 85.402 120.83 85.6 120.062 85.6C119.594 85.6 119.138 85.522 118.694 85.366C118.262 85.222 117.902 85.006 117.614 84.718L118.352 83.422C118.844 83.89 119.414 84.124 120.062 84.124C120.482 84.124 120.83 84.01 121.106 83.782C121.394 83.566 121.652 83.188 121.88 82.648L122.186 81.982L117.974 72.46H119.774L123.104 80.092L126.398 72.46H128.09ZM133.525 82.108C132.577 82.108 131.725 81.898 130.969 81.478C130.213 81.058 129.619 80.482 129.187 79.75C128.767 79.006 128.557 78.166 128.557 77.23C128.557 76.294 128.767 75.46 129.187 74.728C129.619 73.984 130.213 73.408 130.969 73C131.725 72.58 132.577 72.37 133.525 72.37C134.473 72.37 135.319 72.58 136.063 73C136.819 73.408 137.407 73.984 137.827 74.728C138.259 75.46 138.475 76.294 138.475 77.23C138.475 78.166 138.259 79.006 137.827 79.75C137.407 80.482 136.819 81.058 136.063 81.478C135.319 81.898 134.473 82.108 133.525 82.108ZM133.525 80.596C134.137 80.596 134.683 80.458 135.163 80.182C135.655 79.894 136.039 79.498 136.315 78.994C136.591 78.478 136.729 77.89 136.729 77.23C136.729 76.57 136.591 75.988 136.315 75.484C136.039 74.968 135.655 74.572 135.163 74.296C134.683 74.02 134.137 73.882 133.525 73.882C132.913 73.882 132.361 74.02 131.869 74.296C131.389 74.572 131.005 74.968 130.717 75.484C130.441 75.988 130.303 76.57 130.303 77.23C130.303 77.89 130.441 78.478 130.717 78.994C131.005 79.498 131.389 79.894 131.869 80.182C132.361 80.458 132.913 80.596 133.525 80.596ZM149.757 72.46V82H148.119V80.56C147.771 81.052 147.309 81.436 146.733 81.712C146.169 81.976 145.551 82.108 144.879 82.108C143.607 82.108 142.605 81.76 141.873 81.064C141.141 80.356 140.775 79.318 140.775 77.95V72.46H142.503V77.752C142.503 78.676 142.725 79.378 143.169 79.858C143.613 80.326 144.249 80.56 145.077 80.56C145.989 80.56 146.709 80.284 147.237 79.732C147.765 79.18 148.029 78.4 148.029 77.392V72.46H149.757ZM166.772 72.46V82H165.134V80.56C164.786 81.052 164.324 81.436 163.748 81.712C163.184 81.976 162.566 82.108 161.894 82.108C160.622 82.108 159.62 81.76 158.888 81.064C158.156 80.356 157.79 79.318 157.79 77.95V72.46H159.518V77.752C159.518 78.676 159.74 79.378 160.184 79.858C160.628 80.326 161.264 80.56 162.092 80.56C163.004 80.56 163.724 80.284 164.252 79.732C164.78 79.18 165.044 78.4 165.044 77.392V72.46H166.772ZM175.156 72.37C176.368 72.37 177.328 72.724 178.036 73.432C178.756 74.128 179.116 75.154 179.116 76.51V82H177.388V76.708C177.388 75.784 177.166 75.088 176.722 74.62C176.278 74.152 175.642 73.918 174.814 73.918C173.878 73.918 173.14 74.194 172.6 74.746C172.06 75.286 171.79 76.066 171.79 77.086V82H170.062V72.46H171.718V73.9C172.066 73.408 172.534 73.03 173.122 72.766C173.722 72.502 174.4 72.37 175.156 72.37ZM182.314 68.644H184.042V82H182.314V68.644ZM191.427 82.108C190.479 82.108 189.627 81.898 188.871 81.478C188.115 81.058 187.521 80.482 187.089 79.75C186.669 79.006 186.459 78.166 186.459 77.23C186.459 76.294 186.669 75.46 187.089 74.728C187.521 73.984 188.115 73.408 188.871 73C189.627 72.58 190.479 72.37 191.427 72.37C192.375 72.37 193.221 72.58 193.965 73C194.721 73.408 195.309 73.984 195.729 74.728C196.161 75.46 196.377 76.294 196.377 77.23C196.377 78.166 196.161 79.006 195.729 79.75C195.309 80.482 194.721 81.058 193.965 81.478C193.221 81.898 192.375 82.108 191.427 82.108ZM191.427 80.596C192.039 80.596 192.585 80.458 193.065 80.182C193.557 79.894 193.941 79.498 194.217 78.994C194.493 78.478 194.631 77.89 194.631 77.23C194.631 76.57 194.493 75.988 194.217 75.484C193.941 74.968 193.557 74.572 193.065 74.296C192.585 74.02 192.039 73.882 191.427 73.882C190.815 73.882 190.263 74.02 189.771 74.296C189.291 74.572 188.907 74.968 188.619 75.484C188.343 75.988 188.205 76.57 188.205 77.23C188.205 77.89 188.343 78.478 188.619 78.994C188.907 79.498 189.291 79.894 189.771 80.182C190.263 80.458 190.815 80.596 191.427 80.596ZM202.925 82.108C201.953 82.108 201.083 81.898 200.315 81.478C199.559 81.058 198.965 80.482 198.533 79.75C198.101 79.006 197.885 78.166 197.885 77.23C197.885 76.294 198.101 75.46 198.533 74.728C198.965 73.984 199.559 73.408 200.315 73C201.083 72.58 201.953 72.37 202.925 72.37C203.789 72.37 204.557 72.544 205.229 72.892C205.913 73.24 206.441 73.744 206.813 74.404L205.499 75.25C205.199 74.794 204.827 74.452 204.383 74.224C203.939 73.996 203.447 73.882 202.907 73.882C202.283 73.882 201.719 74.02 201.215 74.296C200.723 74.572 200.333 74.968 200.045 75.484C199.769 75.988 199.631 76.57 199.631 77.23C199.631 77.902 199.769 78.496 200.045 79.012C200.333 79.516 200.723 79.906 201.215 80.182C201.719 80.458 202.283 80.596 202.907 80.596C203.447 80.596 203.939 80.482 204.383 80.254C204.827 80.026 205.199 79.684 205.499 79.228L206.813 80.056C206.441 80.716 205.913 81.226 205.229 81.586C204.557 81.934 203.789 82.108 202.925 82.108ZM212.635 77.554L210.655 79.39V82H208.927V68.644H210.655V77.212L215.857 72.46H217.945L213.931 76.402L218.341 82H216.217L212.635 77.554ZM230.217 81.442C229.965 81.658 229.653 81.826 229.281 81.946C228.909 82.054 228.525 82.108 228.129 82.108C227.169 82.108 226.425 81.85 225.897 81.334C225.369 80.818 225.105 80.08 225.105 79.12V73.882H223.485V72.46H225.105V70.372H226.833V72.46H229.569V73.882H226.833V79.048C226.833 79.564 226.959 79.96 227.211 80.236C227.475 80.512 227.847 80.65 228.327 80.65C228.855 80.65 229.305 80.5 229.677 80.2L230.217 81.442ZM237.4 72.37C238.612 72.37 239.572 72.724 240.28 73.432C241 74.128 241.36 75.154 241.36 76.51V82H239.632V76.708C239.632 75.784 239.41 75.088 238.966 74.62C238.522 74.152 237.886 73.918 237.058 73.918C236.122 73.918 235.384 74.194 234.844 74.746C234.304 75.286 234.034 76.066 234.034 77.086V82H232.306V68.644H234.034V73.81C234.394 73.354 234.862 73 235.438 72.748C236.026 72.496 236.68 72.37 237.4 72.37ZM253.233 77.284C253.233 77.416 253.221 77.59 253.197 77.806H245.457C245.565 78.646 245.931 79.324 246.555 79.84C247.191 80.344 247.977 80.596 248.913 80.596C250.053 80.596 250.971 80.212 251.667 79.444L252.621 80.56C252.189 81.064 251.649 81.448 251.001 81.712C250.365 81.976 249.651 82.108 248.859 82.108C247.851 82.108 246.957 81.904 246.177 81.496C245.397 81.076 244.791 80.494 244.359 79.75C243.939 79.006 243.729 78.166 243.729 77.23C243.729 76.306 243.933 75.472 244.341 74.728C244.761 73.984 245.331 73.408 246.051 73C246.783 72.58 247.605 72.37 248.517 72.37C249.429 72.37 250.239 72.58 250.947 73C251.667 73.408 252.225 73.984 252.621 74.728C253.029 75.472 253.233 76.324 253.233 77.284ZM248.517 73.828C247.689 73.828 246.993 74.08 246.429 74.584C245.877 75.088 245.553 75.748 245.457 76.564H251.577C251.481 75.76 251.151 75.106 250.587 74.602C250.035 74.086 249.345 73.828 248.517 73.828ZM265.83 81.442C265.578 81.658 265.266 81.826 264.894 81.946C264.522 82.054 264.138 82.108 263.742 82.108C262.782 82.108 262.038 81.85 261.51 81.334C260.982 80.818 260.718 80.08 260.718 79.12V73.882H259.098V72.46H260.718V70.372H262.446V72.46H265.182V73.882H262.446V79.048C262.446 79.564 262.572 79.96 262.824 80.236C263.088 80.512 263.46 80.65 263.94 80.65C264.468 80.65 264.918 80.5 265.29 80.2L265.83 81.442ZM269.575 74.062C269.875 73.51 270.319 73.09 270.907 72.802C271.495 72.514 272.209 72.37 273.049 72.37V74.044C272.953 74.032 272.821 74.026 272.653 74.026C271.717 74.026 270.979 74.308 270.439 74.872C269.911 75.424 269.647 76.216 269.647 77.248V82H267.919V72.46H269.575V74.062ZM284.194 72.46V82H282.556V80.56C282.208 81.052 281.746 81.436 281.17 81.712C280.606 81.976 279.988 82.108 279.316 82.108C278.044 82.108 277.042 81.76 276.31 81.064C275.578 80.356 275.212 79.318 275.212 77.95V72.46H276.94V77.752C276.94 78.676 277.162 79.378 277.606 79.858C278.05 80.326 278.686 80.56 279.514 80.56C280.426 80.56 281.146 80.284 281.674 79.732C282.202 79.18 282.466 78.4 282.466 77.392V72.46H284.194ZM296.106 77.284C296.106 77.416 296.094 77.59 296.07 77.806H288.33C288.438 78.646 288.804 79.324 289.428 79.84C290.064 80.344 290.85 80.596 291.786 80.596C292.926 80.596 293.844 80.212 294.54 79.444L295.494 80.56C295.062 81.064 294.522 81.448 293.874 81.712C293.238 81.976 292.524 82.108 291.732 82.108C290.724 82.108 289.83 81.904 289.05 81.496C288.27 81.076 287.664 80.494 287.232 79.75C286.812 79.006 286.602 78.166 286.602 77.23C286.602 76.306 286.806 75.472 287.214 74.728C287.634 73.984 288.204 73.408 288.924 73C289.656 72.58 290.478 72.37 291.39 72.37C292.302 72.37 293.112 72.58 293.82 73C294.54 73.408 295.098 73.984 295.494 74.728C295.902 75.472 296.106 76.324 296.106 77.284ZM291.39 73.828C290.562 73.828 289.866 74.08 289.302 74.584C288.75 75.088 288.426 75.748 288.33 76.564H294.45C294.354 75.76 294.024 75.106 293.46 74.602C292.908 74.086 292.218 73.828 291.39 73.828ZM308.397 72.37C309.321 72.37 310.149 72.574 310.881 72.982C311.613 73.39 312.183 73.96 312.591 74.692C313.011 75.424 313.221 76.27 313.221 77.23C313.221 78.19 313.011 79.042 312.591 79.786C312.183 80.518 311.613 81.088 310.881 81.496C310.149 81.904 309.321 82.108 308.397 82.108C307.713 82.108 307.083 81.976 306.507 81.712C305.943 81.448 305.463 81.064 305.067 80.56V85.492H303.339V72.46H304.995V73.972C305.379 73.444 305.865 73.048 306.453 72.784C307.041 72.508 307.689 72.37 308.397 72.37ZM308.253 80.596C308.865 80.596 309.411 80.458 309.891 80.182C310.383 79.894 310.767 79.498 311.043 78.994C311.331 78.478 311.475 77.89 311.475 77.23C311.475 76.57 311.331 75.988 311.043 75.484C310.767 74.968 310.383 74.572 309.891 74.296C309.411 74.02 308.865 73.882 308.253 73.882C307.653 73.882 307.107 74.026 306.615 74.314C306.135 74.59 305.751 74.98 305.463 75.484C305.187 75.988 305.049 76.57 305.049 77.23C305.049 77.89 305.187 78.478 305.463 78.994C305.739 79.498 306.123 79.894 306.615 80.182C307.107 80.458 307.653 80.596 308.253 80.596ZM319.695 82.108C318.747 82.108 317.895 81.898 317.139 81.478C316.383 81.058 315.789 80.482 315.357 79.75C314.937 79.006 314.727 78.166 314.727 77.23C314.727 76.294 314.937 75.46 315.357 74.728C315.789 73.984 316.383 73.408 317.139 73C317.895 72.58 318.747 72.37 319.695 72.37C320.643 72.37 321.489 72.58 322.233 73C322.989 73.408 323.577 73.984 323.997 74.728C324.429 75.46 324.645 76.294 324.645 77.23C324.645 78.166 324.429 79.006 323.997 79.75C323.577 80.482 322.989 81.058 322.233 81.478C321.489 81.898 320.643 82.108 319.695 82.108ZM319.695 80.596C320.307 80.596 320.853 80.458 321.333 80.182C321.825 79.894 322.209 79.498 322.485 78.994C322.761 78.478 322.899 77.89 322.899 77.23C322.899 76.57 322.761 75.988 322.485 75.484C322.209 74.968 321.825 74.572 321.333 74.296C320.853 74.02 320.307 73.882 319.695 73.882C319.083 73.882 318.531 74.02 318.039 74.296C317.559 74.572 317.175 74.968 316.887 75.484C316.611 75.988 316.473 76.57 316.473 77.23C316.473 77.89 316.611 78.478 316.887 78.994C317.175 79.498 317.559 79.894 318.039 80.182C318.531 80.458 319.083 80.596 319.695 80.596ZM332.398 81.442C332.146 81.658 331.834 81.826 331.462 81.946C331.09 82.054 330.706 82.108 330.31 82.108C329.35 82.108 328.606 81.85 328.078 81.334C327.55 80.818 327.286 80.08 327.286 79.12V73.882H325.666V72.46H327.286V70.372H329.014V72.46H331.75V73.882H329.014V79.048C329.014 79.564 329.14 79.96 329.392 80.236C329.656 80.512 330.028 80.65 330.508 80.65C331.036 80.65 331.486 80.5 331.858 80.2L332.398 81.442ZM342.793 77.284C342.793 77.416 342.781 77.59 342.757 77.806H335.017C335.125 78.646 335.491 79.324 336.115 79.84C336.751 80.344 337.537 80.596 338.473 80.596C339.613 80.596 340.531 80.212 341.227 79.444L342.181 80.56C341.749 81.064 341.209 81.448 340.561 81.712C339.925 81.976 339.211 82.108 338.419 82.108C337.411 82.108 336.517 81.904 335.737 81.496C334.957 81.076 334.351 80.494 333.919 79.75C333.499 79.006 333.289 78.166 333.289 77.23C333.289 76.306 333.493 75.472 333.901 74.728C334.321 73.984 334.891 73.408 335.611 73C336.343 72.58 337.165 72.37 338.077 72.37C338.989 72.37 339.799 72.58 340.507 73C341.227 73.408 341.785 73.984 342.181 74.728C342.589 75.472 342.793 76.324 342.793 77.284ZM338.077 73.828C337.249 73.828 336.553 74.08 335.989 74.584C335.437 75.088 335.113 75.748 335.017 76.564H341.137C341.041 75.76 340.711 75.106 340.147 74.602C339.595 74.086 338.905 73.828 338.077 73.828ZM350.287 72.37C351.499 72.37 352.459 72.724 353.167 73.432C353.887 74.128 354.247 75.154 354.247 76.51V82H352.519V76.708C352.519 75.784 352.297 75.088 351.853 74.62C351.409 74.152 350.773 73.918 349.945 73.918C349.009 73.918 348.271 74.194 347.731 74.746C347.191 75.286 346.921 76.066 346.921 77.086V82H345.193V72.46H346.849V73.9C347.197 73.408 347.665 73.03 348.253 72.766C348.853 72.502 349.531 72.37 350.287 72.37ZM362.809 81.442C362.557 81.658 362.245 81.826 361.873 81.946C361.501 82.054 361.117 82.108 360.721 82.108C359.761 82.108 359.017 81.85 358.489 81.334C357.961 80.818 357.697 80.08 357.697 79.12V73.882H356.077V72.46H357.697V70.372H359.425V72.46H362.161V73.882H359.425V79.048C359.425 79.564 359.551 79.96 359.803 80.236C360.067 80.512 360.439 80.65 360.919 80.65C361.447 80.65 361.897 80.5 362.269 80.2L362.809 81.442ZM364.898 72.46H366.626V82H364.898V72.46ZM365.762 70.624C365.426 70.624 365.144 70.516 364.916 70.3C364.7 70.084 364.592 69.82 364.592 69.508C364.592 69.196 364.7 68.932 364.916 68.716C365.144 68.488 365.426 68.374 365.762 68.374C366.098 68.374 366.374 68.482 366.59 68.698C366.818 68.902 366.932 69.16 366.932 69.472C366.932 69.796 366.818 70.072 366.59 70.3C366.374 70.516 366.098 70.624 365.762 70.624ZM373.399 72.37C374.719 72.37 375.727 72.694 376.423 73.342C377.131 73.99 377.485 74.956 377.485 76.24V82H375.847V80.74C375.559 81.184 375.145 81.526 374.605 81.766C374.077 81.994 373.447 82.108 372.715 82.108C371.647 82.108 370.789 81.85 370.141 81.334C369.505 80.818 369.187 80.14 369.187 79.3C369.187 78.46 369.493 77.788 370.105 77.284C370.717 76.768 371.689 76.51 373.021 76.51H375.757V76.168C375.757 75.424 375.541 74.854 375.109 74.458C374.677 74.062 374.041 73.864 373.201 73.864C372.637 73.864 372.085 73.96 371.545 74.152C371.005 74.332 370.549 74.578 370.177 74.89L369.457 73.594C369.949 73.198 370.537 72.898 371.221 72.694C371.905 72.478 372.631 72.37 373.399 72.37ZM373.003 80.776C373.663 80.776 374.233 80.632 374.713 80.344C375.193 80.044 375.541 79.624 375.757 79.084V77.752H373.093C371.629 77.752 370.897 78.244 370.897 79.228C370.897 79.708 371.083 80.086 371.455 80.362C371.827 80.638 372.343 80.776 373.003 80.776ZM380.683 68.644H382.411V82H380.683V68.644ZM394.702 82.108C393.73 82.108 392.86 81.898 392.092 81.478C391.336 81.058 390.742 80.482 390.31 79.75C389.878 79.006 389.662 78.166 389.662 77.23C389.662 76.294 389.878 75.46 390.31 74.728C390.742 73.984 391.336 73.408 392.092 73C392.86 72.58 393.73 72.37 394.702 72.37C395.566 72.37 396.334 72.544 397.006 72.892C397.69 73.24 398.218 73.744 398.59 74.404L397.276 75.25C396.976 74.794 396.604 74.452 396.16 74.224C395.716 73.996 395.224 73.882 394.684 73.882C394.06 73.882 393.496 74.02 392.992 74.296C392.5 74.572 392.11 74.968 391.822 75.484C391.546 75.988 391.408 76.57 391.408 77.23C391.408 77.902 391.546 78.496 391.822 79.012C392.11 79.516 392.5 79.906 392.992 80.182C393.496 80.458 394.06 80.596 394.684 80.596C395.224 80.596 395.716 80.482 396.16 80.254C396.604 80.026 396.976 79.684 397.276 79.228L398.59 80.056C398.218 80.716 397.69 81.226 397.006 81.586C396.334 81.934 395.566 82.108 394.702 82.108ZM404.773 82.108C403.825 82.108 402.973 81.898 402.217 81.478C401.461 81.058 400.867 80.482 400.435 79.75C400.015 79.006 399.805 78.166 399.805 77.23C399.805 76.294 400.015 75.46 400.435 74.728C400.867 73.984 401.461 73.408 402.217 73C402.973 72.58 403.825 72.37 404.773 72.37C405.721 72.37 406.567 72.58 407.311 73C408.067 73.408 408.655 73.984 409.075 74.728C409.507 75.46 409.723 76.294 409.723 77.23C409.723 78.166 409.507 79.006 409.075 79.75C408.655 80.482 408.067 81.058 407.311 81.478C406.567 81.898 405.721 82.108 404.773 82.108ZM404.773 80.596C405.385 80.596 405.931 80.458 406.411 80.182C406.903 79.894 407.287 79.498 407.563 78.994C407.839 78.478 407.977 77.89 407.977 77.23C407.977 76.57 407.839 75.988 407.563 75.484C407.287 74.968 406.903 74.572 406.411 74.296C405.931 74.02 405.385 73.882 404.773 73.882C404.161 73.882 403.609 74.02 403.117 74.296C402.637 74.572 402.253 74.968 401.965 75.484C401.689 75.988 401.551 76.57 401.551 77.23C401.551 77.89 401.689 78.478 401.965 78.994C402.253 79.498 402.637 79.894 403.117 80.182C403.609 80.458 404.161 80.596 404.773 80.596ZM417.207 72.37C418.419 72.37 419.379 72.724 420.087 73.432C420.807 74.128 421.167 75.154 421.167 76.51V82H419.439V76.708C419.439 75.784 419.217 75.088 418.773 74.62C418.329 74.152 417.693 73.918 416.865 73.918C415.929 73.918 415.191 74.194 414.651 74.746C414.111 75.286 413.841 76.066 413.841 77.086V82H412.113V72.46H413.769V73.9C414.117 73.408 414.585 73.03 415.173 72.766C415.773 72.502 416.451 72.37 417.207 72.37ZM429.459 72.37C430.671 72.37 431.631 72.724 432.339 73.432C433.059 74.128 433.419 75.154 433.419 76.51V82H431.691V76.708C431.691 75.784 431.469 75.088 431.025 74.62C430.581 74.152 429.945 73.918 429.117 73.918C428.181 73.918 427.443 74.194 426.903 74.746C426.363 75.286 426.093 76.066 426.093 77.086V82H424.365V72.46H426.021V73.9C426.369 73.408 426.837 73.03 427.425 72.766C428.025 72.502 428.703 72.37 429.459 72.37ZM445.291 77.284C445.291 77.416 445.279 77.59 445.255 77.806H437.515C437.623 78.646 437.989 79.324 438.613 79.84C439.249 80.344 440.035 80.596 440.971 80.596C442.111 80.596 443.029 80.212 443.725 79.444L444.679 80.56C444.247 81.064 443.707 81.448 443.059 81.712C442.423 81.976 441.709 82.108 440.917 82.108C439.909 82.108 439.015 81.904 438.235 81.496C437.455 81.076 436.849 80.494 436.417 79.75C435.997 79.006 435.787 78.166 435.787 77.23C435.787 76.306 435.991 75.472 436.399 74.728C436.819 73.984 437.389 73.408 438.109 73C438.841 72.58 439.663 72.37 440.575 72.37C441.487 72.37 442.297 72.58 443.005 73C443.725 73.408 444.283 73.984 444.679 74.728C445.087 75.472 445.291 76.324 445.291 77.284ZM440.575 73.828C439.747 73.828 439.051 74.08 438.487 74.584C437.935 75.088 437.611 75.748 437.515 76.564H443.635C443.539 75.76 443.209 75.106 442.645 74.602C442.093 74.086 441.403 73.828 440.575 73.828ZM451.849 82.108C450.877 82.108 450.007 81.898 449.239 81.478C448.483 81.058 447.889 80.482 447.457 79.75C447.025 79.006 446.809 78.166 446.809 77.23C446.809 76.294 447.025 75.46 447.457 74.728C447.889 73.984 448.483 73.408 449.239 73C450.007 72.58 450.877 72.37 451.849 72.37C452.713 72.37 453.481 72.544 454.153 72.892C454.837 73.24 455.365 73.744 455.737 74.404L454.423 75.25C454.123 74.794 453.751 74.452 453.307 74.224C452.863 73.996 452.371 73.882 451.831 73.882C451.207 73.882 450.643 74.02 450.139 74.296C449.647 74.572 449.257 74.968 448.969 75.484C448.693 75.988 448.555 76.57 448.555 77.23C448.555 77.902 448.693 78.496 448.969 79.012C449.257 79.516 449.647 79.906 450.139 80.182C450.643 80.458 451.207 80.596 451.831 80.596C452.371 80.596 452.863 80.482 453.307 80.254C453.751 80.026 454.123 79.684 454.423 79.228L455.737 80.056C455.365 80.716 454.837 81.226 454.153 81.586C453.481 81.934 452.713 82.108 451.849 82.108ZM463.461 81.442C463.209 81.658 462.897 81.826 462.525 81.946C462.153 82.054 461.769 82.108 461.373 82.108C460.413 82.108 459.669 81.85 459.141 81.334C458.613 80.818 458.349 80.08 458.349 79.12V73.882H456.729V72.46H458.349V70.372H460.077V72.46H462.813V73.882H460.077V79.048C460.077 79.564 460.203 79.96 460.455 80.236C460.719 80.512 461.091 80.65 461.571 80.65C462.099 80.65 462.549 80.5 462.921 80.2L463.461 81.442ZM484.82 72.46L481.256 82H479.6L476.846 74.764L474.056 82H472.4L468.854 72.46H470.492L473.264 80.056L476.144 72.46H477.602L480.428 80.092L483.272 72.46H484.82ZM486.574 72.46H488.302V82H486.574V72.46ZM487.438 70.624C487.102 70.624 486.82 70.516 486.592 70.3C486.376 70.084 486.268 69.82 486.268 69.508C486.268 69.196 486.376 68.932 486.592 68.716C486.82 68.488 487.102 68.374 487.438 68.374C487.774 68.374 488.05 68.482 488.266 68.698C488.494 68.902 488.608 69.16 488.608 69.472C488.608 69.796 488.494 70.072 488.266 70.3C488.05 70.516 487.774 70.624 487.438 70.624ZM496.965 81.442C496.713 81.658 496.401 81.826 496.029 81.946C495.657 82.054 495.273 82.108 494.877 82.108C493.917 82.108 493.173 81.85 492.645 81.334C492.117 80.818 491.853 80.08 491.853 79.12V73.882H490.233V72.46H491.853V70.372H493.581V72.46H496.317V73.882H493.581V79.048C493.581 79.564 493.707 79.96 493.959 80.236C494.223 80.512 494.595 80.65 495.075 80.65C495.603 80.65 496.053 80.5 496.425 80.2L496.965 81.442ZM504.148 72.37C505.36 72.37 506.32 72.724 507.028 73.432C507.748 74.128 508.108 75.154 508.108 76.51V82H506.38V76.708C506.38 75.784 506.158 75.088 505.714 74.62C505.27 74.152 504.634 73.918 503.806 73.918C502.87 73.918 502.132 74.194 501.592 74.746C501.052 75.286 500.782 76.066 500.782 77.086V82H499.054V68.644H500.782V73.81C501.142 73.354 501.61 73 502.186 72.748C502.774 72.496 503.428 72.37 504.148 72.37ZM524.582 72.46L519.956 82.954C519.548 83.926 519.068 84.61 518.516 85.006C517.976 85.402 517.322 85.6 516.554 85.6C516.086 85.6 515.63 85.522 515.186 85.366C514.754 85.222 514.394 85.006 514.106 84.718L514.844 83.422C515.336 83.89 515.906 84.124 516.554 84.124C516.974 84.124 517.322 84.01 517.598 83.782C517.886 83.566 518.144 83.188 518.372 82.648L518.678 81.982L514.466 72.46H516.266L519.596 80.092L522.89 72.46H524.582ZM530.017 82.108C529.069 82.108 528.217 81.898 527.461 81.478C526.705 81.058 526.111 80.482 525.679 79.75C525.259 79.006 525.049 78.166 525.049 77.23C525.049 76.294 525.259 75.46 525.679 74.728C526.111 73.984 526.705 73.408 527.461 73C528.217 72.58 529.069 72.37 530.017 72.37C530.965 72.37 531.811 72.58 532.555 73C533.311 73.408 533.899 73.984 534.319 74.728C534.751 75.46 534.967 76.294 534.967 77.23C534.967 78.166 534.751 79.006 534.319 79.75C533.899 80.482 533.311 81.058 532.555 81.478C531.811 81.898 530.965 82.108 530.017 82.108ZM530.017 80.596C530.629 80.596 531.175 80.458 531.655 80.182C532.147 79.894 532.531 79.498 532.807 78.994C533.083 78.478 533.221 77.89 533.221 77.23C533.221 76.57 533.083 75.988 532.807 75.484C532.531 74.968 532.147 74.572 531.655 74.296C531.175 74.02 530.629 73.882 530.017 73.882C529.405 73.882 528.853 74.02 528.361 74.296C527.881 74.572 527.497 74.968 527.209 75.484C526.933 75.988 526.795 76.57 526.795 77.23C526.795 77.89 526.933 78.478 527.209 78.994C527.497 79.498 527.881 79.894 528.361 80.182C528.853 80.458 529.405 80.596 530.017 80.596ZM546.249 72.46V82H544.611V80.56C544.263 81.052 543.801 81.436 543.225 81.712C542.661 81.976 542.043 82.108 541.371 82.108C540.099 82.108 539.097 81.76 538.365 81.064C537.633 80.356 537.267 79.318 537.267 77.95V72.46H538.995V77.752C538.995 78.676 539.217 79.378 539.661 79.858C540.105 80.326 540.741 80.56 541.569 80.56C542.481 80.56 543.201 80.284 543.729 79.732C544.257 79.18 544.521 78.4 544.521 77.392V72.46H546.249ZM551.194 74.062C551.494 73.51 551.938 73.09 552.526 72.802C553.114 72.514 553.828 72.37 554.668 72.37V74.044C554.572 74.032 554.44 74.026 554.272 74.026C553.336 74.026 552.598 74.308 552.058 74.872C551.53 75.424 551.266 76.216 551.266 77.248V82H549.538V72.46H551.194V74.062ZM565.913 82.108C564.941 82.108 564.071 81.898 563.303 81.478C562.547 81.058 561.953 80.482 561.521 79.75C561.089 79.006 560.873 78.166 560.873 77.23C560.873 76.294 561.089 75.46 561.521 74.728C561.953 73.984 562.547 73.408 563.303 73C564.071 72.58 564.941 72.37 565.913 72.37C566.777 72.37 567.545 72.544 568.217 72.892C568.901 73.24 569.429 73.744 569.801 74.404L568.487 75.25C568.187 74.794 567.815 74.452 567.371 74.224C566.927 73.996 566.435 73.882 565.895 73.882C565.271 73.882 564.707 74.02 564.203 74.296C563.711 74.572 563.321 74.968 563.033 75.484C562.757 75.988 562.619 76.57 562.619 77.23C562.619 77.902 562.757 78.496 563.033 79.012C563.321 79.516 563.711 79.906 564.203 80.182C564.707 80.458 565.271 80.596 565.895 80.596C566.435 80.596 566.927 80.482 567.371 80.254C567.815 80.026 568.187 79.684 568.487 79.228L569.801 80.056C569.429 80.716 568.901 81.226 568.217 81.586C567.545 81.934 566.777 82.108 565.913 82.108ZM580.93 72.46V82H579.292V80.56C578.944 81.052 578.482 81.436 577.906 81.712C577.342 81.976 576.724 82.108 576.052 82.108C574.78 82.108 573.778 81.76 573.046 81.064C572.314 80.356 571.948 79.318 571.948 77.95V72.46H573.676V77.752C573.676 78.676 573.898 79.378 574.342 79.858C574.786 80.326 575.422 80.56 576.25 80.56C577.162 80.56 577.882 80.284 578.41 79.732C578.938 79.18 579.202 78.4 579.202 77.392V72.46H580.93ZM586.956 82.108C586.176 82.108 585.426 82.006 584.706 81.802C583.986 81.586 583.422 81.316 583.014 80.992L583.734 79.624C584.154 79.924 584.664 80.164 585.264 80.344C585.864 80.524 586.47 80.614 587.082 80.614C588.594 80.614 589.35 80.182 589.35 79.318C589.35 79.03 589.248 78.802 589.044 78.634C588.84 78.466 588.582 78.346 588.27 78.274C587.97 78.19 587.538 78.1 586.974 78.004C586.206 77.884 585.576 77.746 585.084 77.59C584.604 77.434 584.19 77.17 583.842 76.798C583.494 76.426 583.32 75.904 583.32 75.232C583.32 74.368 583.68 73.678 584.4 73.162C585.12 72.634 586.086 72.37 587.298 72.37C587.934 72.37 588.57 72.448 589.206 72.604C589.842 72.76 590.364 72.97 590.772 73.234L590.034 74.602C589.254 74.098 588.336 73.846 587.28 73.846C586.548 73.846 585.99 73.966 585.606 74.206C585.222 74.446 585.03 74.764 585.03 75.16C585.03 75.472 585.138 75.718 585.354 75.898C585.57 76.078 585.834 76.21 586.146 76.294C586.47 76.378 586.92 76.474 587.496 76.582C588.264 76.714 588.882 76.858 589.35 77.014C589.83 77.158 590.238 77.41 590.574 77.77C590.91 78.13 591.078 78.634 591.078 79.282C591.078 80.146 590.706 80.836 589.962 81.352C589.23 81.856 588.228 82.108 586.956 82.108ZM598.602 81.442C598.35 81.658 598.038 81.826 597.666 81.946C597.294 82.054 596.91 82.108 596.514 82.108C595.554 82.108 594.81 81.85 594.282 81.334C593.754 80.818 593.49 80.08 593.49 79.12V73.882H591.87V72.46H593.49V70.372H595.218V72.46H597.954V73.882H595.218V79.048C595.218 79.564 595.344 79.96 595.596 80.236C595.86 80.512 596.232 80.65 596.712 80.65C597.24 80.65 597.69 80.5 598.062 80.2L598.602 81.442ZM604.46 82.108C603.512 82.108 602.66 81.898 601.904 81.478C601.148 81.058 600.554 80.482 600.122 79.75C599.702 79.006 599.492 78.166 599.492 77.23C599.492 76.294 599.702 75.46 600.122 74.728C600.554 73.984 601.148 73.408 601.904 73C602.66 72.58 603.512 72.37 604.46 72.37C605.408 72.37 606.254 72.58 606.998 73C607.754 73.408 608.342 73.984 608.762 74.728C609.194 75.46 609.41 76.294 609.41 77.23C609.41 78.166 609.194 79.006 608.762 79.75C608.342 80.482 607.754 81.058 606.998 81.478C606.254 81.898 605.408 82.108 604.46 82.108ZM604.46 80.596C605.072 80.596 605.618 80.458 606.098 80.182C606.59 79.894 606.974 79.498 607.25 78.994C607.526 78.478 607.664 77.89 607.664 77.23C607.664 76.57 607.526 75.988 607.25 75.484C606.974 74.968 606.59 74.572 606.098 74.296C605.618 74.02 605.072 73.882 604.46 73.882C603.848 73.882 603.296 74.02 602.804 74.296C602.324 74.572 601.94 74.968 601.652 75.484C601.376 75.988 601.238 76.57 601.238 77.23C601.238 77.89 601.376 78.478 601.652 78.994C601.94 79.498 602.324 79.894 602.804 80.182C603.296 80.458 603.848 80.596 604.46 80.596ZM623.734 72.37C624.934 72.37 625.882 72.718 626.578 73.414C627.286 74.11 627.64 75.142 627.64 76.51V82H625.912V76.708C625.912 75.784 625.696 75.088 625.264 74.62C624.844 74.152 624.238 73.918 623.446 73.918C622.57 73.918 621.874 74.194 621.358 74.746C620.842 75.286 620.584 76.066 620.584 77.086V82H618.856V76.708C618.856 75.784 618.64 75.088 618.208 74.62C617.788 74.152 617.182 73.918 616.39 73.918C615.514 73.918 614.818 74.194 614.302 74.746C613.786 75.286 613.528 76.066 613.528 77.086V82H611.8V72.46H613.456V73.882C613.804 73.39 614.26 73.018 614.824 72.766C615.388 72.502 616.03 72.37 616.75 72.37C617.494 72.37 618.154 72.52 618.73 72.82C619.306 73.12 619.75 73.558 620.062 74.134C620.422 73.582 620.92 73.15 621.556 72.838C622.204 72.526 622.93 72.37 623.734 72.37ZM639.494 77.284C639.494 77.416 639.482 77.59 639.458 77.806H631.718C631.826 78.646 632.192 79.324 632.816 79.84C633.452 80.344 634.238 80.596 635.174 80.596C636.314 80.596 637.232 80.212 637.928 79.444L638.882 80.56C638.45 81.064 637.91 81.448 637.262 81.712C636.626 81.976 635.912 82.108 635.12 82.108C634.112 82.108 633.218 81.904 632.438 81.496C631.658 81.076 631.052 80.494 630.62 79.75C630.2 79.006 629.99 78.166 629.99 77.23C629.99 76.306 630.194 75.472 630.602 74.728C631.022 73.984 631.592 73.408 632.312 73C633.044 72.58 633.866 72.37 634.778 72.37C635.69 72.37 636.5 72.58 637.208 73C637.928 73.408 638.486 73.984 638.882 74.728C639.29 75.472 639.494 76.324 639.494 77.284ZM634.778 73.828C633.95 73.828 633.254 74.08 632.69 74.584C632.138 75.088 631.814 75.748 631.718 76.564H637.838C637.742 75.76 637.412 75.106 636.848 74.602C636.296 74.086 635.606 73.828 634.778 73.828ZM643.55 74.062C643.85 73.51 644.294 73.09 644.882 72.802C645.47 72.514 646.184 72.37 647.024 72.37V74.044C646.928 74.032 646.796 74.026 646.628 74.026C645.692 74.026 644.954 74.308 644.414 74.872C643.886 75.424 643.622 76.216 643.622 77.248V82H641.894V72.46H643.55V74.062ZM651.96 82.108C651.18 82.108 650.43 82.006 649.71 81.802C648.99 81.586 648.426 81.316 648.018 80.992L648.738 79.624C649.158 79.924 649.668 80.164 650.268 80.344C650.868 80.524 651.474 80.614 652.086 80.614C653.598 80.614 654.354 80.182 654.354 79.318C654.354 79.03 654.252 78.802 654.048 78.634C653.844 78.466 653.586 78.346 653.274 78.274C652.974 78.19 652.542 78.1 651.978 78.004C651.21 77.884 650.58 77.746 650.088 77.59C649.608 77.434 649.194 77.17 648.846 76.798C648.498 76.426 648.324 75.904 648.324 75.232C648.324 74.368 648.684 73.678 649.404 73.162C650.124 72.634 651.09 72.37 652.302 72.37C652.938 72.37 653.574 72.448 654.21 72.604C654.846 72.76 655.368 72.97 655.776 73.234L655.038 74.602C654.258 74.098 653.34 73.846 652.284 73.846C651.552 73.846 650.994 73.966 650.61 74.206C650.226 74.446 650.034 74.764 650.034 75.16C650.034 75.472 650.142 75.718 650.358 75.898C650.574 76.078 650.838 76.21 651.15 76.294C651.474 76.378 651.924 76.474 652.5 76.582C653.268 76.714 653.886 76.858 654.354 77.014C654.834 77.158 655.242 77.41 655.578 77.77C655.914 78.13 656.082 78.634 656.082 79.282C656.082 80.146 655.71 80.836 654.966 81.352C654.234 81.856 653.232 82.108 651.96 82.108ZM668.44 81.442C668.188 81.658 667.876 81.826 667.504 81.946C667.132 82.054 666.748 82.108 666.352 82.108C665.392 82.108 664.648 81.85 664.12 81.334C663.592 80.818 663.328 80.08 663.328 79.12V73.882H661.708V72.46H663.328V70.372H665.056V72.46H667.792V73.882H665.056V79.048C665.056 79.564 665.182 79.96 665.434 80.236C665.698 80.512 666.07 80.65 666.55 80.65C667.078 80.65 667.528 80.5 667.9 80.2L668.44 81.442ZM674.298 82.108C673.35 82.108 672.498 81.898 671.742 81.478C670.986 81.058 670.392 80.482 669.96 79.75C669.54 79.006 669.33 78.166 669.33 77.23C669.33 76.294 669.54 75.46 669.96 74.728C670.392 73.984 670.986 73.408 671.742 73C672.498 72.58 673.35 72.37 674.298 72.37C675.246 72.37 676.092 72.58 676.836 73C677.592 73.408 678.18 73.984 678.6 74.728C679.032 75.46 679.248 76.294 679.248 77.23C679.248 78.166 679.032 79.006 678.6 79.75C678.18 80.482 677.592 81.058 676.836 81.478C676.092 81.898 675.246 82.108 674.298 82.108ZM674.298 80.596C674.91 80.596 675.456 80.458 675.936 80.182C676.428 79.894 676.812 79.498 677.088 78.994C677.364 78.478 677.502 77.89 677.502 77.23C677.502 76.57 677.364 75.988 677.088 75.484C676.812 74.968 676.428 74.572 675.936 74.296C675.456 74.02 674.91 73.882 674.298 73.882C673.686 73.882 673.134 74.02 672.642 74.296C672.162 74.572 671.778 74.968 671.49 75.484C671.214 75.988 671.076 76.57 671.076 77.23C671.076 77.89 671.214 78.478 671.49 78.994C671.778 79.498 672.162 79.894 672.642 80.182C673.134 80.458 673.686 80.596 674.298 80.596ZM202.561 94.46V104H200.923V102.56C200.575 103.052 200.113 103.436 199.537 103.712C198.973 103.976 198.355 104.108 197.683 104.108C196.411 104.108 195.409 103.76 194.677 103.064C193.945 102.356 193.579 101.318 193.579 99.95V94.46H195.307V99.752C195.307 100.676 195.529 101.378 195.973 101.858C196.417 102.326 197.053 102.56 197.881 102.56C198.793 102.56 199.513 102.284 200.041 101.732C200.569 101.18 200.833 100.4 200.833 99.392V94.46H202.561ZM210.945 94.37C212.157 94.37 213.117 94.724 213.825 95.432C214.545 96.128 214.905 97.154 214.905 98.51V104H213.177V98.708C213.177 97.784 212.955 97.088 212.511 96.62C212.067 96.152 211.431 95.918 210.603 95.918C209.667 95.918 208.929 96.194 208.389 96.746C207.849 97.286 207.579 98.066 207.579 99.086V104H205.851V94.46H207.507V95.9C207.855 95.408 208.323 95.03 208.911 94.766C209.511 94.502 210.189 94.37 210.945 94.37ZM227.156 90.644V104H225.5V102.488C225.116 103.016 224.63 103.418 224.042 103.694C223.454 103.97 222.806 104.108 222.098 104.108C221.174 104.108 220.346 103.904 219.614 103.496C218.882 103.088 218.306 102.518 217.886 101.786C217.478 101.042 217.274 100.19 217.274 99.23C217.274 98.27 217.478 97.424 217.886 96.692C218.306 95.96 218.882 95.39 219.614 94.982C220.346 94.574 221.174 94.37 222.098 94.37C222.782 94.37 223.412 94.502 223.988 94.766C224.564 95.018 225.044 95.396 225.428 95.9V90.644H227.156ZM222.242 102.596C222.842 102.596 223.388 102.458 223.88 102.182C224.372 101.894 224.756 101.498 225.032 100.994C225.308 100.478 225.446 99.89 225.446 99.23C225.446 98.57 225.308 97.988 225.032 97.484C224.756 96.968 224.372 96.572 223.88 96.296C223.388 96.02 222.842 95.882 222.242 95.882C221.63 95.882 221.078 96.02 220.586 96.296C220.106 96.572 219.722 96.968 219.434 97.484C219.158 97.988 219.02 98.57 219.02 99.23C219.02 99.89 219.158 100.478 219.434 100.994C219.722 101.498 220.106 101.894 220.586 102.182C221.078 102.458 221.63 102.596 222.242 102.596ZM239.047 99.284C239.047 99.416 239.035 99.59 239.011 99.806H231.271C231.379 100.646 231.745 101.324 232.369 101.84C233.005 102.344 233.791 102.596 234.727 102.596C235.867 102.596 236.785 102.212 237.481 101.444L238.435 102.56C238.003 103.064 237.463 103.448 236.815 103.712C236.179 103.976 235.465 104.108 234.673 104.108C233.665 104.108 232.771 103.904 231.991 103.496C231.211 103.076 230.605 102.494 230.173 101.75C229.753 101.006 229.543 100.166 229.543 99.23C229.543 98.306 229.747 97.472 230.155 96.728C230.575 95.984 231.145 95.408 231.865 95C232.597 94.58 233.419 94.37 234.331 94.37C235.243 94.37 236.053 94.58 236.761 95C237.481 95.408 238.039 95.984 238.435 96.728C238.843 97.472 239.047 98.324 239.047 99.284ZM234.331 95.828C233.503 95.828 232.807 96.08 232.243 96.584C231.691 97.088 231.367 97.748 231.271 98.564H237.391C237.295 97.76 236.965 97.106 236.401 96.602C235.849 96.086 235.159 95.828 234.331 95.828ZM243.103 96.062C243.403 95.51 243.847 95.09 244.435 94.802C245.023 94.514 245.737 94.37 246.577 94.37V96.044C246.481 96.032 246.349 96.026 246.181 96.026C245.245 96.026 244.507 96.308 243.967 96.872C243.439 97.424 243.175 98.216 243.175 99.248V104H241.447V94.46H243.103V96.062ZM251.513 104.108C250.733 104.108 249.983 104.006 249.263 103.802C248.543 103.586 247.979 103.316 247.571 102.992L248.291 101.624C248.711 101.924 249.221 102.164 249.821 102.344C250.421 102.524 251.027 102.614 251.639 102.614C253.151 102.614 253.907 102.182 253.907 101.318C253.907 101.03 253.805 100.802 253.601 100.634C253.397 100.466 253.139 100.346 252.827 100.274C252.527 100.19 252.095 100.1 251.531 100.004C250.763 99.884 250.133 99.746 249.641 99.59C249.161 99.434 248.747 99.17 248.399 98.798C248.051 98.426 247.877 97.904 247.877 97.232C247.877 96.368 248.237 95.678 248.957 95.162C249.677 94.634 250.643 94.37 251.855 94.37C252.491 94.37 253.127 94.448 253.763 94.604C254.399 94.76 254.921 94.97 255.329 95.234L254.591 96.602C253.811 96.098 252.893 95.846 251.837 95.846C251.105 95.846 250.547 95.966 250.163 96.206C249.779 96.446 249.587 96.764 249.587 97.16C249.587 97.472 249.695 97.718 249.911 97.898C250.127 98.078 250.391 98.21 250.703 98.294C251.027 98.378 251.477 98.474 252.053 98.582C252.821 98.714 253.439 98.858 253.907 99.014C254.387 99.158 254.795 99.41 255.131 99.77C255.467 100.13 255.635 100.634 255.635 101.282C255.635 102.146 255.263 102.836 254.519 103.352C253.787 103.856 252.785 104.108 251.513 104.108ZM263.158 103.442C262.906 103.658 262.594 103.826 262.222 103.946C261.85 104.054 261.466 104.108 261.07 104.108C260.11 104.108 259.366 103.85 258.838 103.334C258.31 102.818 258.046 102.08 258.046 101.12V95.882H256.426V94.46H258.046V92.372H259.774V94.46H262.51V95.882H259.774V101.048C259.774 101.564 259.9 101.96 260.152 102.236C260.416 102.512 260.788 102.65 261.268 102.65C261.796 102.65 262.246 102.5 262.618 102.2L263.158 103.442ZM268.721 94.37C270.041 94.37 271.049 94.694 271.745 95.342C272.453 95.99 272.807 96.956 272.807 98.24V104H271.169V102.74C270.881 103.184 270.467 103.526 269.927 103.766C269.399 103.994 268.769 104.108 268.037 104.108C266.969 104.108 266.111 103.85 265.463 103.334C264.827 102.818 264.509 102.14 264.509 101.3C264.509 100.46 264.815 99.788 265.427 99.284C266.039 98.768 267.011 98.51 268.343 98.51H271.079V98.168C271.079 97.424 270.863 96.854 270.431 96.458C269.999 96.062 269.363 95.864 268.523 95.864C267.959 95.864 267.407 95.96 266.867 96.152C266.327 96.332 265.871 96.578 265.499 96.89L264.779 95.594C265.271 95.198 265.859 94.898 266.543 94.694C267.227 94.478 267.953 94.37 268.721 94.37ZM268.325 102.776C268.985 102.776 269.555 102.632 270.035 102.344C270.515 102.044 270.863 101.624 271.079 101.084V99.752H268.415C266.951 99.752 266.219 100.244 266.219 101.228C266.219 101.708 266.405 102.086 266.777 102.362C267.149 102.638 267.665 102.776 268.325 102.776ZM281.099 94.37C282.311 94.37 283.271 94.724 283.979 95.432C284.699 96.128 285.059 97.154 285.059 98.51V104H283.331V98.708C283.331 97.784 283.109 97.088 282.665 96.62C282.221 96.152 281.585 95.918 280.757 95.918C279.821 95.918 279.083 96.194 278.543 96.746C278.003 97.286 277.733 98.066 277.733 99.086V104H276.005V94.46H277.661V95.9C278.009 95.408 278.477 95.03 279.065 94.766C279.665 94.502 280.343 94.37 281.099 94.37ZM297.31 90.644V104H295.654V102.488C295.27 103.016 294.784 103.418 294.196 103.694C293.608 103.97 292.96 104.108 292.252 104.108C291.328 104.108 290.5 103.904 289.768 103.496C289.036 103.088 288.46 102.518 288.04 101.786C287.632 101.042 287.428 100.19 287.428 99.23C287.428 98.27 287.632 97.424 288.04 96.692C288.46 95.96 289.036 95.39 289.768 94.982C290.5 94.574 291.328 94.37 292.252 94.37C292.936 94.37 293.566 94.502 294.142 94.766C294.718 95.018 295.198 95.396 295.582 95.9V90.644H297.31ZM292.396 102.596C292.996 102.596 293.542 102.458 294.034 102.182C294.526 101.894 294.91 101.498 295.186 100.994C295.462 100.478 295.6 99.89 295.6 99.23C295.6 98.57 295.462 97.988 295.186 97.484C294.91 96.968 294.526 96.572 294.034 96.296C293.542 96.02 292.996 95.882 292.396 95.882C291.784 95.882 291.232 96.02 290.74 96.296C290.26 96.572 289.876 96.968 289.588 97.484C289.312 97.988 289.174 98.57 289.174 99.23C289.174 99.89 289.312 100.478 289.588 100.994C289.876 101.498 290.26 101.894 290.74 102.182C291.232 102.458 291.784 102.596 292.396 102.596ZM310.777 103.442C310.525 103.658 310.213 103.826 309.841 103.946C309.469 104.054 309.085 104.108 308.689 104.108C307.729 104.108 306.985 103.85 306.457 103.334C305.929 102.818 305.665 102.08 305.665 101.12V95.882H304.045V94.46H305.665V92.372H307.393V94.46H310.129V95.882H307.393V101.048C307.393 101.564 307.519 101.96 307.771 102.236C308.035 102.512 308.407 102.65 308.887 102.65C309.415 102.65 309.865 102.5 310.237 102.2L310.777 103.442ZM317.961 94.37C319.173 94.37 320.133 94.724 320.841 95.432C321.561 96.128 321.921 97.154 321.921 98.51V104H320.193V98.708C320.193 97.784 319.971 97.088 319.527 96.62C319.083 96.152 318.447 95.918 317.619 95.918C316.683 95.918 315.945 96.194 315.405 96.746C314.865 97.286 314.595 98.066 314.595 99.086V104H312.867V90.644H314.595V95.81C314.955 95.354 315.423 95 315.999 94.748C316.587 94.496 317.241 94.37 317.961 94.37ZM333.793 99.284C333.793 99.416 333.781 99.59 333.757 99.806H326.017C326.125 100.646 326.491 101.324 327.115 101.84C327.751 102.344 328.537 102.596 329.473 102.596C330.613 102.596 331.531 102.212 332.227 101.444L333.181 102.56C332.749 103.064 332.209 103.448 331.561 103.712C330.925 103.976 330.211 104.108 329.419 104.108C328.411 104.108 327.517 103.904 326.737 103.496C325.957 103.076 325.351 102.494 324.919 101.75C324.499 101.006 324.289 100.166 324.289 99.23C324.289 98.306 324.493 97.472 324.901 96.728C325.321 95.984 325.891 95.408 326.611 95C327.343 94.58 328.165 94.37 329.077 94.37C329.989 94.37 330.799 94.58 331.507 95C332.227 95.408 332.785 95.984 333.181 96.728C333.589 97.472 333.793 98.324 333.793 99.284ZM329.077 95.828C328.249 95.828 327.553 96.08 326.989 96.584C326.437 97.088 326.113 97.748 326.017 98.564H332.137C332.041 97.76 331.711 97.106 331.147 96.602C330.595 96.086 329.905 95.828 329.077 95.828ZM342.683 96.062C342.983 95.51 343.427 95.09 344.015 94.802C344.603 94.514 345.317 94.37 346.157 94.37V96.044C346.061 96.032 345.929 96.026 345.761 96.026C344.825 96.026 344.087 96.308 343.547 96.872C343.019 97.424 342.755 98.216 342.755 99.248V104H341.027V94.46H342.683V96.062ZM348.286 94.46H350.014V104H348.286V94.46ZM349.15 92.624C348.814 92.624 348.532 92.516 348.304 92.3C348.088 92.084 347.98 91.82 347.98 91.508C347.98 91.196 348.088 90.932 348.304 90.716C348.532 90.488 348.814 90.374 349.15 90.374C349.486 90.374 349.762 90.482 349.978 90.698C350.206 90.902 350.32 91.16 350.32 91.472C350.32 91.796 350.206 92.072 349.978 92.3C349.762 92.516 349.486 92.624 349.15 92.624ZM362.44 94.46V102.704C362.44 104.372 362.026 105.602 361.198 106.394C360.37 107.198 359.134 107.6 357.49 107.6C356.59 107.6 355.732 107.474 354.916 107.222C354.1 106.982 353.44 106.634 352.936 106.178L353.764 104.846C354.208 105.23 354.754 105.53 355.402 105.746C356.062 105.974 356.74 106.088 357.436 106.088C358.552 106.088 359.374 105.824 359.902 105.296C360.442 104.768 360.712 103.964 360.712 102.884V102.128C360.304 102.62 359.8 102.992 359.2 103.244C358.612 103.484 357.97 103.604 357.274 103.604C356.362 103.604 355.534 103.412 354.79 103.028C354.058 102.632 353.482 102.086 353.062 101.39C352.642 100.682 352.432 99.878 352.432 98.978C352.432 98.078 352.642 97.28 353.062 96.584C353.482 95.876 354.058 95.33 354.79 94.946C355.534 94.562 356.362 94.37 357.274 94.37C357.994 94.37 358.66 94.502 359.272 94.766C359.896 95.03 360.406 95.42 360.802 95.936V94.46H362.44ZM357.472 102.092C358.096 102.092 358.654 101.96 359.146 101.696C359.65 101.432 360.04 101.066 360.316 100.598C360.604 100.118 360.748 99.578 360.748 98.978C360.748 98.054 360.442 97.31 359.83 96.746C359.218 96.17 358.432 95.882 357.472 95.882C356.5 95.882 355.708 96.17 355.096 96.746C354.484 97.31 354.178 98.054 354.178 98.978C354.178 99.578 354.316 100.118 354.592 100.598C354.88 101.066 355.27 101.432 355.762 101.696C356.266 101.96 356.836 102.092 357.472 102.092ZM370.836 94.37C372.048 94.37 373.008 94.724 373.716 95.432C374.436 96.128 374.796 97.154 374.796 98.51V104H373.068V98.708C373.068 97.784 372.846 97.088 372.402 96.62C371.958 96.152 371.322 95.918 370.494 95.918C369.558 95.918 368.82 96.194 368.28 96.746C367.74 97.286 367.47 98.066 367.47 99.086V104H365.742V90.644H367.47V95.81C367.83 95.354 368.298 95 368.874 94.748C369.462 94.496 370.116 94.37 370.836 94.37ZM383.357 103.442C383.105 103.658 382.793 103.826 382.421 103.946C382.049 104.054 381.665 104.108 381.269 104.108C380.309 104.108 379.565 103.85 379.037 103.334C378.509 102.818 378.245 102.08 378.245 101.12V95.882H376.625V94.46H378.245V92.372H379.973V94.46H382.709V95.882H379.973V101.048C379.973 101.564 380.099 101.96 380.351 102.236C380.615 102.512 380.987 102.65 381.467 102.65C381.995 102.65 382.445 102.5 382.817 102.2L383.357 103.442ZM388.183 104.108C387.403 104.108 386.653 104.006 385.933 103.802C385.213 103.586 384.649 103.316 384.241 102.992L384.961 101.624C385.381 101.924 385.891 102.164 386.491 102.344C387.091 102.524 387.697 102.614 388.309 102.614C389.821 102.614 390.577 102.182 390.577 101.318C390.577 101.03 390.475 100.802 390.271 100.634C390.067 100.466 389.809 100.346 389.497 100.274C389.197 100.19 388.765 100.1 388.201 100.004C387.433 99.884 386.803 99.746 386.311 99.59C385.831 99.434 385.417 99.17 385.069 98.798C384.721 98.426 384.547 97.904 384.547 97.232C384.547 96.368 384.907 95.678 385.627 95.162C386.347 94.634 387.313 94.37 388.525 94.37C389.161 94.37 389.797 94.448 390.433 94.604C391.069 94.76 391.591 94.97 391.999 95.234L391.261 96.602C390.481 96.098 389.563 95.846 388.507 95.846C387.775 95.846 387.217 95.966 386.833 96.206C386.449 96.446 386.257 96.764 386.257 97.16C386.257 97.472 386.365 97.718 386.581 97.898C386.797 98.078 387.061 98.21 387.373 98.294C387.697 98.378 388.147 98.474 388.723 98.582C389.491 98.714 390.109 98.858 390.577 99.014C391.057 99.158 391.465 99.41 391.801 99.77C392.137 100.13 392.305 100.634 392.305 101.282C392.305 102.146 391.933 102.836 391.189 103.352C390.457 103.856 389.455 104.108 388.183 104.108ZM402.772 94.37C404.092 94.37 405.1 94.694 405.796 95.342C406.504 95.99 406.858 96.956 406.858 98.24V104H405.22V102.74C404.932 103.184 404.518 103.526 403.978 103.766C403.45 103.994 402.82 104.108 402.088 104.108C401.02 104.108 400.162 103.85 399.514 103.334C398.878 102.818 398.56 102.14 398.56 101.3C398.56 100.46 398.866 99.788 399.478 99.284C400.09 98.768 401.062 98.51 402.394 98.51H405.13V98.168C405.13 97.424 404.914 96.854 404.482 96.458C404.05 96.062 403.414 95.864 402.574 95.864C402.01 95.864 401.458 95.96 400.918 96.152C400.378 96.332 399.922 96.578 399.55 96.89L398.83 95.594C399.322 95.198 399.91 94.898 400.594 94.694C401.278 94.478 402.004 94.37 402.772 94.37ZM402.376 102.776C403.036 102.776 403.606 102.632 404.086 102.344C404.566 102.044 404.914 101.624 405.13 101.084V99.752H402.466C401.002 99.752 400.27 100.244 400.27 101.228C400.27 101.708 400.456 102.086 400.828 102.362C401.2 102.638 401.716 102.776 402.376 102.776ZM415.15 94.37C416.362 94.37 417.322 94.724 418.03 95.432C418.75 96.128 419.11 97.154 419.11 98.51V104H417.382V98.708C417.382 97.784 417.16 97.088 416.716 96.62C416.272 96.152 415.636 95.918 414.808 95.918C413.872 95.918 413.134 96.194 412.594 96.746C412.054 97.286 411.784 98.066 411.784 99.086V104H410.056V94.46H411.712V95.9C412.06 95.408 412.528 95.03 413.116 94.766C413.716 94.502 414.394 94.37 415.15 94.37ZM431.361 90.644V104H429.705V102.488C429.321 103.016 428.835 103.418 428.247 103.694C427.659 103.97 427.011 104.108 426.303 104.108C425.379 104.108 424.551 103.904 423.819 103.496C423.087 103.088 422.511 102.518 422.091 101.786C421.683 101.042 421.479 100.19 421.479 99.23C421.479 98.27 421.683 97.424 422.091 96.692C422.511 95.96 423.087 95.39 423.819 94.982C424.551 94.574 425.379 94.37 426.303 94.37C426.987 94.37 427.617 94.502 428.193 94.766C428.769 95.018 429.249 95.396 429.633 95.9V90.644H431.361ZM426.447 102.596C427.047 102.596 427.593 102.458 428.085 102.182C428.577 101.894 428.961 101.498 429.237 100.994C429.513 100.478 429.651 99.89 429.651 99.23C429.651 98.57 429.513 97.988 429.237 97.484C428.961 96.968 428.577 96.572 428.085 96.296C427.593 96.02 427.047 95.882 426.447 95.882C425.835 95.882 425.283 96.02 424.791 96.296C424.311 96.572 423.927 96.968 423.639 97.484C423.363 97.988 423.225 98.57 423.225 99.23C423.225 99.89 423.363 100.478 423.639 100.994C423.927 101.498 424.311 101.894 424.791 102.182C425.283 102.458 425.835 102.596 426.447 102.596ZM453.9 94.46L450.336 104H448.68L445.926 96.764L443.136 104H441.48L437.934 94.46H439.572L442.344 102.056L445.224 94.46H446.682L449.508 102.092L452.352 94.46H453.9ZM457.31 96.062C457.61 95.51 458.054 95.09 458.642 94.802C459.23 94.514 459.944 94.37 460.784 94.37V96.044C460.688 96.032 460.556 96.026 460.388 96.026C459.452 96.026 458.714 96.308 458.174 96.872C457.646 97.424 457.382 98.216 457.382 99.248V104H455.654V94.46H457.31V96.062ZM466.912 104.108C465.964 104.108 465.112 103.898 464.356 103.478C463.6 103.058 463.006 102.482 462.574 101.75C462.154 101.006 461.944 100.166 461.944 99.23C461.944 98.294 462.154 97.46 462.574 96.728C463.006 95.984 463.6 95.408 464.356 95C465.112 94.58 465.964 94.37 466.912 94.37C467.86 94.37 468.706 94.58 469.45 95C470.206 95.408 470.794 95.984 471.214 96.728C471.646 97.46 471.862 98.294 471.862 99.23C471.862 100.166 471.646 101.006 471.214 101.75C470.794 102.482 470.206 103.058 469.45 103.478C468.706 103.898 467.86 104.108 466.912 104.108ZM466.912 102.596C467.524 102.596 468.07 102.458 468.55 102.182C469.042 101.894 469.426 101.498 469.702 100.994C469.978 100.478 470.116 99.89 470.116 99.23C470.116 98.57 469.978 97.988 469.702 97.484C469.426 96.968 469.042 96.572 468.55 96.296C468.07 96.02 467.524 95.882 466.912 95.882C466.3 95.882 465.748 96.02 465.256 96.296C464.776 96.572 464.392 96.968 464.104 97.484C463.828 97.988 463.69 98.57 463.69 99.23C463.69 99.89 463.828 100.478 464.104 100.994C464.392 101.498 464.776 101.894 465.256 102.182C465.748 102.458 466.3 102.596 466.912 102.596ZM479.345 94.37C480.557 94.37 481.517 94.724 482.225 95.432C482.945 96.128 483.305 97.154 483.305 98.51V104H481.577V98.708C481.577 97.784 481.355 97.088 480.911 96.62C480.467 96.152 479.831 95.918 479.003 95.918C478.067 95.918 477.329 96.194 476.789 96.746C476.249 97.286 475.979 98.066 475.979 99.086V104H474.251V94.46H475.907V95.9C476.255 95.408 476.723 95.03 477.311 94.766C477.911 94.502 478.589 94.37 479.345 94.37ZM495.682 94.46V102.704C495.682 104.372 495.268 105.602 494.44 106.394C493.612 107.198 492.376 107.6 490.732 107.6C489.832 107.6 488.974 107.474 488.158 107.222C487.342 106.982 486.682 106.634 486.178 106.178L487.006 104.846C487.45 105.23 487.996 105.53 488.644 105.746C489.304 105.974 489.982 106.088 490.678 106.088C491.794 106.088 492.616 105.824 493.144 105.296C493.684 104.768 493.954 103.964 493.954 102.884V102.128C493.546 102.62 493.042 102.992 492.442 103.244C491.854 103.484 491.212 103.604 490.516 103.604C489.604 103.604 488.776 103.412 488.032 103.028C487.3 102.632 486.724 102.086 486.304 101.39C485.884 100.682 485.674 99.878 485.674 98.978C485.674 98.078 485.884 97.28 486.304 96.584C486.724 95.876 487.3 95.33 488.032 94.946C488.776 94.562 489.604 94.37 490.516 94.37C491.236 94.37 491.902 94.502 492.514 94.766C493.138 95.03 493.648 95.42 494.044 95.936V94.46H495.682ZM490.714 102.092C491.338 102.092 491.896 101.96 492.388 101.696C492.892 101.432 493.282 101.066 493.558 100.598C493.846 100.118 493.99 99.578 493.99 98.978C493.99 98.054 493.684 97.31 493.072 96.746C492.46 96.17 491.674 95.882 490.714 95.882C489.742 95.882 488.95 96.17 488.338 96.746C487.726 97.31 487.42 98.054 487.42 98.978C487.42 99.578 487.558 100.118 487.834 100.598C488.122 101.066 488.512 101.432 489.004 101.696C489.508 101.96 490.078 102.092 490.714 102.092ZM501.72 104.108C500.94 104.108 500.19 104.006 499.47 103.802C498.75 103.586 498.186 103.316 497.778 102.992L498.498 101.624C498.918 101.924 499.428 102.164 500.028 102.344C500.628 102.524 501.234 102.614 501.846 102.614C503.358 102.614 504.114 102.182 504.114 101.318C504.114 101.03 504.012 100.802 503.808 100.634C503.604 100.466 503.346 100.346 503.034 100.274C502.734 100.19 502.302 100.1 501.738 100.004C500.97 99.884 500.34 99.746 499.848 99.59C499.368 99.434 498.954 99.17 498.606 98.798C498.258 98.426 498.084 97.904 498.084 97.232C498.084 96.368 498.444 95.678 499.164 95.162C499.884 94.634 500.85 94.37 502.062 94.37C502.698 94.37 503.334 94.448 503.97 94.604C504.606 94.76 505.128 94.97 505.536 95.234L504.798 96.602C504.018 96.098 503.1 95.846 502.044 95.846C501.312 95.846 500.754 95.966 500.37 96.206C499.986 96.446 499.794 96.764 499.794 97.16C499.794 97.472 499.902 97.718 500.118 97.898C500.334 98.078 500.598 98.21 500.91 98.294C501.234 98.378 501.684 98.474 502.26 98.582C503.028 98.714 503.646 98.858 504.114 99.014C504.594 99.158 505.002 99.41 505.338 99.77C505.674 100.13 505.842 100.634 505.842 101.282C505.842 102.146 505.47 102.836 504.726 103.352C503.994 103.856 502.992 104.108 501.72 104.108ZM527.271 94.46L523.707 104H522.051L519.297 96.764L516.507 104H514.851L511.305 94.46H512.943L515.715 102.056L518.595 94.46H520.053L522.879 102.092L525.723 94.46H527.271ZM529.025 94.46H530.753V104H529.025V94.46ZM529.889 92.624C529.553 92.624 529.271 92.516 529.043 92.3C528.827 92.084 528.719 91.82 528.719 91.508C528.719 91.196 528.827 90.932 529.043 90.716C529.271 90.488 529.553 90.374 529.889 90.374C530.225 90.374 530.501 90.482 530.717 90.698C530.945 90.902 531.059 91.16 531.059 91.472C531.059 91.796 530.945 92.072 530.717 92.3C530.501 92.516 530.225 92.624 529.889 92.624ZM539.416 103.442C539.164 103.658 538.852 103.826 538.48 103.946C538.108 104.054 537.724 104.108 537.328 104.108C536.368 104.108 535.624 103.85 535.096 103.334C534.568 102.818 534.304 102.08 534.304 101.12V95.882H532.684V94.46H534.304V92.372H536.032V94.46H538.768V95.882H536.032V101.048C536.032 101.564 536.158 101.96 536.41 102.236C536.674 102.512 537.046 102.65 537.526 102.65C538.054 102.65 538.504 102.5 538.876 102.2L539.416 103.442ZM546.599 94.37C547.811 94.37 548.771 94.724 549.479 95.432C550.199 96.128 550.559 97.154 550.559 98.51V104H548.831V98.708C548.831 97.784 548.609 97.088 548.165 96.62C547.721 96.152 547.085 95.918 546.257 95.918C545.321 95.918 544.583 96.194 544.043 96.746C543.503 97.286 543.233 98.066 543.233 99.086V104H541.505V90.644H543.233V95.81C543.593 95.354 544.061 95 544.637 94.748C545.225 94.496 545.879 94.37 546.599 94.37ZM567.033 94.46L562.407 104.954C561.999 105.926 561.519 106.61 560.967 107.006C560.427 107.402 559.773 107.6 559.005 107.6C558.537 107.6 558.081 107.522 557.637 107.366C557.205 107.222 556.845 107.006 556.557 106.718L557.295 105.422C557.787 105.89 558.357 106.124 559.005 106.124C559.425 106.124 559.773 106.01 560.049 105.782C560.337 105.566 560.595 105.188 560.823 104.648L561.129 103.982L556.917 94.46H558.717L562.047 102.092L565.341 94.46H567.033ZM572.468 104.108C571.52 104.108 570.668 103.898 569.912 103.478C569.156 103.058 568.562 102.482 568.13 101.75C567.71 101.006 567.5 100.166 567.5 99.23C567.5 98.294 567.71 97.46 568.13 96.728C568.562 95.984 569.156 95.408 569.912 95C570.668 94.58 571.52 94.37 572.468 94.37C573.416 94.37 574.262 94.58 575.006 95C575.762 95.408 576.35 95.984 576.77 96.728C577.202 97.46 577.418 98.294 577.418 99.23C577.418 100.166 577.202 101.006 576.77 101.75C576.35 102.482 575.762 103.058 575.006 103.478C574.262 103.898 573.416 104.108 572.468 104.108ZM572.468 102.596C573.08 102.596 573.626 102.458 574.106 102.182C574.598 101.894 574.982 101.498 575.258 100.994C575.534 100.478 575.672 99.89 575.672 99.23C575.672 98.57 575.534 97.988 575.258 97.484C574.982 96.968 574.598 96.572 574.106 96.296C573.626 96.02 573.08 95.882 572.468 95.882C571.856 95.882 571.304 96.02 570.812 96.296C570.332 96.572 569.948 96.968 569.66 97.484C569.384 97.988 569.246 98.57 569.246 99.23C569.246 99.89 569.384 100.478 569.66 100.994C569.948 101.498 570.332 101.894 570.812 102.182C571.304 102.458 571.856 102.596 572.468 102.596ZM588.7 94.46V104H587.062V102.56C586.714 103.052 586.252 103.436 585.676 103.712C585.112 103.976 584.494 104.108 583.822 104.108C582.55 104.108 581.548 103.76 580.816 103.064C580.084 102.356 579.718 101.318 579.718 99.95V94.46H581.446V99.752C581.446 100.676 581.668 101.378 582.112 101.858C582.556 102.326 583.192 102.56 584.02 102.56C584.932 102.56 585.652 102.284 586.18 101.732C586.708 101.18 586.972 100.4 586.972 99.392V94.46H588.7ZM593.646 96.062C593.946 95.51 594.39 95.09 594.978 94.802C595.566 94.514 596.28 94.37 597.12 94.37V96.044C597.024 96.032 596.892 96.026 596.724 96.026C595.788 96.026 595.05 96.308 594.51 96.872C593.982 97.424 593.718 98.216 593.718 99.248V104H591.99V94.46H593.646V96.062ZM609.264 94.37C610.188 94.37 611.016 94.574 611.748 94.982C612.48 95.39 613.05 95.96 613.458 96.692C613.878 97.424 614.088 98.27 614.088 99.23C614.088 100.19 613.878 101.042 613.458 101.786C613.05 102.518 612.48 103.088 611.748 103.496C611.016 103.904 610.188 104.108 609.264 104.108C608.58 104.108 607.95 103.976 607.374 103.712C606.81 103.448 606.33 103.064 605.934 102.56V107.492H604.206V94.46H605.862V95.972C606.246 95.444 606.732 95.048 607.32 94.784C607.908 94.508 608.556 94.37 609.264 94.37ZM609.12 102.596C609.732 102.596 610.278 102.458 610.758 102.182C611.25 101.894 611.634 101.498 611.91 100.994C612.198 100.478 612.342 99.89 612.342 99.23C612.342 98.57 612.198 97.988 611.91 97.484C611.634 96.968 611.25 96.572 610.758 96.296C610.278 96.02 609.732 95.882 609.12 95.882C608.52 95.882 607.974 96.026 607.482 96.314C607.002 96.59 606.618 96.98 606.33 97.484C606.054 97.988 605.916 98.57 605.916 99.23C605.916 99.89 606.054 100.478 606.33 100.994C606.606 101.498 606.99 101.894 607.482 102.182C607.974 102.458 608.52 102.596 609.12 102.596ZM618.132 96.062C618.432 95.51 618.876 95.09 619.464 94.802C620.052 94.514 620.766 94.37 621.606 94.37V96.044C621.51 96.032 621.378 96.026 621.21 96.026C620.274 96.026 619.536 96.308 618.996 96.872C618.468 97.424 618.204 98.216 618.204 99.248V104H616.476V94.46H618.132V96.062ZM627.734 104.108C626.786 104.108 625.934 103.898 625.178 103.478C624.422 103.058 623.828 102.482 623.396 101.75C622.976 101.006 622.766 100.166 622.766 99.23C622.766 98.294 622.976 97.46 623.396 96.728C623.828 95.984 624.422 95.408 625.178 95C625.934 94.58 626.786 94.37 627.734 94.37C628.682 94.37 629.528 94.58 630.272 95C631.028 95.408 631.616 95.984 632.036 96.728C632.468 97.46 632.684 98.294 632.684 99.23C632.684 100.166 632.468 101.006 632.036 101.75C631.616 102.482 631.028 103.058 630.272 103.478C629.528 103.898 628.682 104.108 627.734 104.108ZM627.734 102.596C628.346 102.596 628.892 102.458 629.372 102.182C629.864 101.894 630.248 101.498 630.524 100.994C630.8 100.478 630.938 99.89 630.938 99.23C630.938 98.57 630.8 97.988 630.524 97.484C630.248 96.968 629.864 96.572 629.372 96.296C628.892 96.02 628.346 95.882 627.734 95.882C627.122 95.882 626.57 96.02 626.078 96.296C625.598 96.572 625.214 96.968 624.926 97.484C624.65 97.988 624.512 98.57 624.512 99.23C624.512 99.89 624.65 100.478 624.926 100.994C625.214 101.498 625.598 101.894 626.078 102.182C626.57 102.458 627.122 102.596 627.734 102.596ZM644.074 90.644V104H642.418V102.488C642.034 103.016 641.548 103.418 640.96 103.694C640.372 103.97 639.724 104.108 639.016 104.108C638.092 104.108 637.264 103.904 636.532 103.496C635.8 103.088 635.224 102.518 634.804 101.786C634.396 101.042 634.192 100.19 634.192 99.23C634.192 98.27 634.396 97.424 634.804 96.692C635.224 95.96 635.8 95.39 636.532 94.982C637.264 94.574 638.092 94.37 639.016 94.37C639.7 94.37 640.33 94.502 640.906 94.766C641.482 95.018 641.962 95.396 642.346 95.9V90.644H644.074ZM639.16 102.596C639.76 102.596 640.306 102.458 640.798 102.182C641.29 101.894 641.674 101.498 641.95 100.994C642.226 100.478 642.364 99.89 642.364 99.23C642.364 98.57 642.226 97.988 641.95 97.484C641.674 96.968 641.29 96.572 640.798 96.296C640.306 96.02 639.76 95.882 639.16 95.882C638.548 95.882 637.996 96.02 637.504 96.296C637.024 96.572 636.64 96.968 636.352 97.484C636.076 97.988 635.938 98.57 635.938 99.23C635.938 99.89 636.076 100.478 636.352 100.994C636.64 101.498 637.024 101.894 637.504 102.182C637.996 102.458 638.548 102.596 639.16 102.596ZM656.235 94.46V104H654.597V102.56C654.249 103.052 653.787 103.436 653.211 103.712C652.647 103.976 652.029 104.108 651.357 104.108C650.085 104.108 649.083 103.76 648.351 103.064C647.619 102.356 647.253 101.318 647.253 99.95V94.46H648.981V99.752C648.981 100.676 649.203 101.378 649.647 101.858C650.091 102.326 650.727 102.56 651.555 102.56C652.467 102.56 653.187 102.284 653.715 101.732C654.243 101.18 654.507 100.4 654.507 99.392V94.46H656.235ZM663.683 104.108C662.711 104.108 661.841 103.898 661.073 103.478C660.317 103.058 659.723 102.482 659.291 101.75C658.859 101.006 658.643 100.166 658.643 99.23C658.643 98.294 658.859 97.46 659.291 96.728C659.723 95.984 660.317 95.408 661.073 95C661.841 94.58 662.711 94.37 663.683 94.37C664.547 94.37 665.315 94.544 665.987 94.892C666.671 95.24 667.199 95.744 667.571 96.404L666.257 97.25C665.957 96.794 665.585 96.452 665.141 96.224C664.697 95.996 664.205 95.882 663.665 95.882C663.041 95.882 662.477 96.02 661.973 96.296C661.481 96.572 661.091 96.968 660.803 97.484C660.527 97.988 660.389 98.57 660.389 99.23C660.389 99.902 660.527 100.496 660.803 101.012C661.091 101.516 661.481 101.906 661.973 102.182C662.477 102.458 663.041 102.596 663.665 102.596C664.205 102.596 664.697 102.482 665.141 102.254C665.585 102.026 665.957 101.684 666.257 101.228L667.571 102.056C667.199 102.716 666.671 103.226 665.987 103.586C665.315 103.934 664.547 104.108 663.683 104.108ZM675.295 103.442C675.043 103.658 674.731 103.826 674.359 103.946C673.987 104.054 673.603 104.108 673.207 104.108C672.247 104.108 671.503 103.85 670.975 103.334C670.447 102.818 670.183 102.08 670.183 101.12V95.882H668.563V94.46H670.183V92.372H671.911V94.46H674.647V95.882H671.911V101.048C671.911 101.564 672.037 101.96 672.289 102.236C672.553 102.512 672.925 102.65 673.405 102.65C673.933 102.65 674.383 102.5 674.755 102.2L675.295 103.442ZM677.974 104.108C677.638 104.108 677.35 103.994 677.11 103.766C676.87 103.526 676.75 103.226 676.75 102.866C676.75 102.518 676.87 102.23 677.11 102.002C677.35 101.762 677.638 101.642 677.974 101.642C678.31 101.642 678.592 101.756 678.82 101.984C679.048 102.212 679.162 102.506 679.162 102.866C679.162 103.226 679.042 103.526 678.802 103.766C678.574 103.994 678.298 104.108 677.974 104.108Z" fill="#333333"/>
<path d="M249.193 553C308.394 553 356.386 549.358 356.386 544.866C356.386 540.373 308.394 536.731 249.193 536.731C189.992 536.731 142 540.373 142 544.866C142 549.358 189.992 553 249.193 553Z" fill="#F7D832"/>
<path d="M223.936 261.984C242.591 254.056 265.826 259.079 288.517 262.565C288.728 258.344 291.288 253.206 288.607 250.26C285.35 246.682 285.649 242.922 287.609 239.141C292.622 229.471 285.441 219.182 278.19 210.626C276.556 208.702 274.49 207.191 272.161 206.214C269.833 205.237 267.306 204.823 264.787 205.006L251.356 205.964C248.087 206.197 244.968 207.423 242.416 209.475C239.863 211.528 237.999 214.311 237.073 217.451C233.866 221.81 232.149 226.156 233.23 230.479C228.426 233.759 227.619 237.719 229.778 242.182C231.608 244.992 231.588 247.728 229.694 250.388C227.207 253.779 225.301 257.561 224.056 261.577L223.936 261.984Z" fill="#2F2E41"/>
<path d="M667.251 502.317H287.044C283.663 502.317 280.42 500.975 278.029 498.586C275.638 496.197 274.295 492.957 274.295 489.579C412.12 473.575 547.355 473.575 680 489.579C680 492.957 678.657 496.197 676.266 498.586C673.875 500.975 670.633 502.317 667.251 502.317Z" fill="#2F2E41"/>
<path d="M680 490.328L274.295 489.579L321.315 410.529L321.54 410.155V235.938C321.54 233.824 321.956 231.73 322.766 229.776C323.576 227.822 324.763 226.047 326.26 224.552C327.756 223.057 329.533 221.871 331.488 221.061C333.443 220.252 335.539 219.836 337.656 219.836H614.39C616.506 219.836 618.602 220.252 620.557 221.061C622.513 221.871 624.289 223.057 625.786 224.552C627.282 226.047 628.469 227.822 629.279 229.776C630.089 231.73 630.506 233.824 630.505 235.938V411.354L680 490.328Z" fill="#3F3D56"/>
<path d="M337.288 231.075C335.896 231.077 334.562 231.63 333.578 232.613C332.594 233.597 332.04 234.93 332.039 236.32V395.169C332.04 396.56 332.594 397.893 333.578 398.876C334.562 399.859 335.896 400.412 337.288 400.414H617.007C618.399 400.412 619.733 399.859 620.717 398.876C621.701 397.893 622.255 396.56 622.256 395.169V236.32C622.255 234.93 621.701 233.597 620.717 232.613C619.733 231.63 618.399 231.077 617.007 231.075H337.288Z" fill="white"/>
<path d="M338.46 421.394C338.03 421.395 337.609 421.518 337.247 421.75C336.885 421.982 336.597 422.312 336.416 422.702L321.928 454.172C321.77 454.515 321.701 454.892 321.727 455.268C321.753 455.644 321.874 456.007 322.077 456.325C322.281 456.642 322.561 456.903 322.892 457.084C323.223 457.265 323.594 457.36 323.972 457.36H628.652C629.035 457.36 629.413 457.262 629.747 457.075C630.082 456.889 630.364 456.62 630.566 456.294C630.767 455.968 630.882 455.596 630.899 455.213C630.916 454.83 630.835 454.449 630.664 454.107L614.915 422.637C614.73 422.262 614.443 421.948 614.087 421.728C613.732 421.509 613.322 421.393 612.904 421.394H338.46Z" fill="#2F2E41"/>
<path d="M476.023 228.453C477.886 228.453 479.397 226.943 479.397 225.081C479.397 223.219 477.886 221.709 476.023 221.709C474.159 221.709 472.648 223.219 472.648 225.081C472.648 226.943 474.159 228.453 476.023 228.453Z" fill="white"/>
<path d="M446.075 463.354C445.581 463.355 445.1 463.518 444.707 463.818C444.315 464.119 444.032 464.54 443.903 465.017L440.269 478.504C440.179 478.838 440.167 479.187 440.234 479.525C440.301 479.864 440.445 480.182 440.655 480.456C440.865 480.73 441.136 480.952 441.445 481.105C441.755 481.258 442.096 481.337 442.441 481.337H511.556C511.915 481.337 512.268 481.251 512.587 481.087C512.906 480.923 513.18 480.685 513.388 480.393C513.596 480.101 513.731 479.763 513.782 479.409C513.833 479.054 513.799 478.692 513.681 478.354L509.009 464.867C508.856 464.425 508.569 464.042 508.188 463.771C507.807 463.5 507.351 463.354 506.883 463.354H446.075Z" fill="#2F2E41"/>
<path d="M630.505 407.532V410.529H321.315L321.547 410.155V407.532H630.505Z" fill="#2F2E41"/>
<path d="M621.881 283.9C650.873 283.9 674.376 260.417 674.376 231.45C674.376 202.483 650.873 179 621.881 179C592.89 179 569.387 202.483 569.387 231.45C569.387 260.417 592.89 283.9 621.881 283.9Z" fill="#F7D832"/>
<path d="M643.629 254.303H600.134C599.339 254.302 598.576 253.986 598.014 253.425C597.451 252.863 597.135 252.101 597.134 251.306V225.081C597.135 224.286 597.451 223.525 598.014 222.963C598.576 222.401 599.339 222.085 600.134 222.084H643.629C644.424 222.085 645.187 222.401 645.749 222.963C646.312 223.525 646.628 224.286 646.629 225.081V251.306C646.628 252.101 646.312 252.863 645.749 253.425C645.187 253.986 644.424 254.302 643.629 254.303ZM600.134 225.081V251.306H643.631L643.629 225.081L600.134 225.081Z" fill="white"/>
<path d="M635.38 225.081H608.383V213.093C608.383 204.409 614.06 198.107 621.881 198.107C629.703 198.107 635.38 204.409 635.38 213.093L635.38 225.081ZM611.383 222.084H632.38V213.093C632.38 206.034 628.063 201.104 621.881 201.104C615.7 201.104 611.383 206.034 611.383 213.093L611.383 222.084Z" fill="white"/>
<path d="M621.882 240.441C623.538 240.441 624.881 239.1 624.881 237.444C624.881 235.789 623.538 234.447 621.882 234.447C620.225 234.447 618.882 235.789 618.882 237.444C618.882 239.1 620.225 240.441 621.882 240.441Z" fill="white"/>
<path d="M585.236 346.534H369.059C367.998 346.533 366.98 346.111 366.23 345.361C365.479 344.611 365.057 343.595 365.056 342.534V288.955C365.057 287.895 365.479 286.878 366.23 286.128C366.98 285.378 367.998 284.956 369.059 284.955H585.236C586.297 284.956 587.315 285.378 588.065 286.128C588.816 286.878 589.238 287.895 589.239 288.955V342.534C589.238 343.595 588.816 344.611 588.065 345.361C587.315 346.111 586.297 346.533 585.236 346.534ZM369.059 286.555C368.422 286.556 367.812 286.809 367.361 287.259C366.911 287.709 366.658 288.319 366.657 288.955V342.534C366.658 343.171 366.911 343.781 367.361 344.231C367.812 344.68 368.422 344.934 369.059 344.934H585.236C585.873 344.934 586.483 344.68 586.934 344.231C587.384 343.781 587.637 343.171 587.638 342.534V288.955C587.637 288.319 587.384 287.709 586.934 287.259C586.483 286.809 585.873 286.556 585.236 286.555L369.059 286.555Z" fill="#E6E6E6"/>
<path d="M402.649 329.982C411.655 329.982 418.956 322.688 418.956 313.689C418.956 304.69 411.655 297.395 402.649 297.395C393.642 297.395 386.341 304.69 386.341 313.689C386.341 322.688 393.642 329.982 402.649 329.982Z" fill="#E6E6E6"/>
<path d="M440.311 302.827C439.953 302.826 439.599 302.896 439.269 303.032C438.939 303.168 438.639 303.368 438.386 303.62C438.133 303.873 437.933 304.172 437.796 304.502C437.659 304.832 437.588 305.185 437.588 305.542C437.588 305.899 437.659 306.253 437.796 306.582C437.933 306.912 438.133 307.212 438.386 307.464C438.639 307.716 438.939 307.916 439.269 308.052C439.599 308.188 439.953 308.258 440.311 308.258H568.438C569.159 308.258 569.851 307.972 570.36 307.462C570.87 306.953 571.156 306.262 571.156 305.542C571.156 304.822 570.87 304.131 570.36 303.622C569.851 303.113 569.159 302.827 568.438 302.827H440.311Z" fill="#E6E6E6"/>
<path d="M440.31 319.12C439.59 319.12 438.898 319.406 438.389 319.915C437.879 320.425 437.593 321.115 437.593 321.836C437.593 322.556 437.879 323.247 438.389 323.756C438.898 324.265 439.59 324.551 440.31 324.551H495.444C496.165 324.551 496.856 324.265 497.366 323.756C497.876 323.247 498.162 322.556 498.162 321.836C498.162 321.115 497.876 320.425 497.366 319.915C496.856 319.406 496.165 319.12 495.444 319.12H440.31Z" fill="#E6E6E6"/>
<path d="M320.783 320.219L280.821 341.446L280.315 323.757C293.358 321.581 305.768 317.793 317.242 311.626L321.421 301.309C321.877 300.185 322.617 299.198 323.569 298.446C324.522 297.694 325.653 297.203 326.853 297.02C328.053 296.836 329.28 296.968 330.414 297.402C331.547 297.836 332.548 298.557 333.319 299.494C334.446 300.865 335.01 302.613 334.895 304.384C334.781 306.155 333.997 307.816 332.702 309.031L320.783 320.219Z" fill="#FFB8B8"/>
<path d="M223.14 442.78C222.848 441.712 222.786 440.594 222.958 439.5C223.13 438.406 223.532 437.361 224.137 436.433L232.915 422.972C234.991 419.788 238.177 417.489 241.855 416.519C245.532 415.55 249.439 415.98 252.817 417.726C249.128 424.001 249.642 429.505 254.091 434.289C247.184 437.658 240.801 442.006 235.138 447.199C234.105 447.903 232.917 448.35 231.676 448.503C230.434 448.656 229.174 448.51 228 448.077C226.826 447.645 225.772 446.939 224.927 446.017C224.082 445.096 223.469 443.986 223.14 442.78Z" fill="#2F2E41"/>
<path d="M322.603 425.18C321.275 427.392 319.399 429.225 317.158 430.505C314.916 431.785 312.382 432.467 309.8 432.486L251.482 432.928L248.953 418.271L274.751 410.689L252.999 394.01L276.774 366.212L319.957 406.426C322.48 408.776 324.12 411.921 324.602 415.335C325.084 418.748 324.378 422.224 322.603 425.18Z" fill="#2F2E41"/>
<path d="M242.376 525.42H228.719C216.456 441.434 203.973 357.213 240.859 325.778L284.362 332.854L278.798 369.75L254.517 397.548L242.376 525.42Z" fill="#2F2E41"/>
<path d="M254.382 544.445C253.313 544.737 252.194 544.799 251.1 544.627C250.005 544.456 248.959 544.054 248.03 543.45L233.2 541.458C230.014 539.384 227.712 536.201 226.742 532.526C225.771 528.852 226.201 524.949 227.949 521.573C234.229 525.259 239.738 524.745 244.525 520.299C247.908 527.124 253.481 526.707 258.804 532.457C259.509 533.49 259.956 534.676 260.109 535.916C260.263 537.157 260.117 538.416 259.684 539.589C259.252 540.762 258.545 541.815 257.623 542.66C256.7 543.504 255.589 544.117 254.382 544.445Z" fill="#2F2E41"/>
<path d="M274.751 269.676L249.458 263.611C253.659 255.02 254.005 245.461 251.988 235.308L269.186 234.802C269.725 247.428 271.356 259.223 274.751 269.676Z" fill="#FFB8B8"/>
<path d="M281.702 348.072C263.29 360.608 250.281 348.501 240.353 329.822C241.733 318.392 239.499 304.713 235.362 289.85C233.522 283.295 234.209 276.288 237.287 270.214C240.365 264.14 245.61 259.439 251.988 257.041L273.739 266.138C292.208 281.181 295.844 297.474 288.914 314.659L281.702 348.072Z" fill="#F7D832"/>
<path d="M228.719 282.312L208.485 292.926L244.4 314.154L249.397 326.47C249.731 327.292 249.893 328.173 249.875 329.06C249.856 329.947 249.657 330.821 249.29 331.628C248.922 332.436 248.394 333.16 247.737 333.757C247.08 334.354 246.309 334.811 245.47 335.1C244.516 335.429 243.498 335.532 242.497 335.402C241.497 335.273 240.539 334.913 239.701 334.352C238.862 333.791 238.165 333.044 237.664 332.169C237.163 331.294 236.871 330.314 236.812 329.308L236.306 320.724L190.659 305.673C189.121 305.166 187.718 304.316 186.558 303.187C185.397 302.058 184.509 300.68 183.961 299.158C183.161 296.938 183.12 294.517 183.845 292.272C184.569 290.027 186.018 288.085 187.965 286.751L224.672 261.59L228.719 282.312Z" fill="#FFB8B8"/>
<path d="M248.952 284.334C240.514 280.638 232.84 284.652 223.154 287.872L221.637 261.084C231.254 255.962 240.424 254.582 248.952 258.557L248.952 284.334Z" fill="#F7D832"/>
<path d="M259.047 248.071C267.966 248.071 275.195 240.847 275.195 231.936C275.195 223.025 267.966 215.802 259.047 215.802C250.129 215.802 242.899 223.025 242.899 231.936C242.899 240.847 250.129 248.071 259.047 248.071Z" fill="#FFB8B8"/>
<path d="M278.366 229.9C262.378 231.465 250.195 228.852 242.409 221.414V215.423H277.009L278.366 229.9Z" fill="#2F2E41"/>
</svg>
